<?xml version="1.0" standalone="no"?>
<!DOCTYPE svg PUBLIC "-//W3C//DTD SVG 20010904//EN"
 "http://www.w3.org/TR/2001/REC-SVG-20010904/DTD/svg10.dtd">
<svg version="1.0" xmlns="http://www.w3.org/2000/svg"
 width="4550.000000pt" height="4102.000000pt" viewBox="0 0 4550.000000 4102.000000"
 preserveAspectRatio="xMidYMid meet">

<g transform="translate(0.000000,4102.000000) scale(0.100000,-0.100000)"
fill="#000000" stroke="none">
<path d="M21200 28790 c-183 -8 -333 -17 -410 -25 -25 -3 -72 -7 -105 -10
-190 -15 -507 -53 -680 -80 -49 -7 -110 -17 -135 -20 -25 -4 -61 -9 -80 -12
-98 -14 -509 -120 -1005 -259 -422 -119 -1005 -348 -1650 -649 -27 -13 -95
-44 -151 -68 -119 -52 -356 -174 -684 -350 -129 -70 -243 -127 -253 -127 -24
0 -51 -15 -80 -44 -12 -12 -54 -40 -92 -61 -195 -107 -387 -224 -660 -401 -33
-21 -116 -79 -184 -129 -68 -49 -141 -102 -163 -118 -22 -15 -45 -32 -51 -37
-7 -6 -84 -65 -172 -131 -88 -67 -178 -138 -200 -158 -22 -20 -57 -49 -76 -66
-257 -214 -604 -576 -884 -920 -22 -27 -49 -61 -60 -75 -97 -129 -149 -196
-159 -205 -25 -21 -291 -395 -462 -650 -74 -111 -284 -450 -284 -460 0 -2 -34
-61 -75 -130 -41 -70 -75 -128 -75 -130 0 -2 -26 -50 -58 -107 -32 -57 -78
-141 -102 -188 -24 -47 -77 -148 -117 -225 -70 -132 -216 -427 -305 -615 -22
-47 -48 -101 -58 -120 -10 -19 -46 -102 -80 -185 -34 -82 -82 -195 -105 -250
-82 -195 -142 -390 -223 -725 -69 -284 -109 -488 -127 -650 -2 -19 -7 -60 -10
-90 -7 -59 -11 -103 -25 -250 -8 -87 -5 -597 4 -680 2 -19 7 -73 10 -120 4
-47 11 -110 16 -140 5 -30 12 -84 15 -120 4 -36 10 -83 15 -105 4 -22 11 -67
15 -100 3 -33 8 -67 10 -75 2 -8 6 -28 9 -45 24 -153 45 -265 88 -475 27 -135
52 -255 54 -268 12 -63 69 -300 95 -397 82 -300 236 -776 259 -799 6 -6 10
-16 10 -23 0 -7 19 -54 41 -104 23 -51 59 -142 79 -203 57 -164 103 -288 155
-411 25 -60 57 -137 69 -170 55 -139 224 -472 264 -518 14 -16 13 -21 -19 -55
-79 -85 -138 -179 -171 -270 -28 -80 -65 -262 -72 -357 -11 -139 35 -328 93
-379 11 -11 21 -22 21 -27 0 -4 15 -33 33 -64 30 -53 38 -60 122 -100 50 -24
126 -55 170 -70 70 -24 91 -27 185 -23 94 3 110 6 155 32 28 16 61 38 74 50
35 32 62 103 68 183 3 39 9 77 14 84 12 19 55 -24 86 -85 50 -98 186 -217 365
-320 53 -31 100 -56 104 -56 4 0 15 -7 24 -15 8 -8 42 -21 74 -29 33 -9 66
-22 75 -30 9 -7 39 -24 66 -38 53 -26 243 -126 260 -137 6 -3 17 -6 25 -7 17
0 94 -34 161 -69 26 -14 78 -38 115 -54 38 -15 117 -49 176 -75 59 -25 111
-46 114 -46 4 0 52 -22 108 -49 120 -58 194 -91 202 -91 3 0 29 -11 57 -24 29
-13 79 -33 112 -44 175 -61 237 -86 309 -128 43 -25 107 -57 140 -70 69 -26
68 -27 -32 -14 -40 5 -127 14 -195 20 -138 11 -190 17 -262 30 -27 5 -106 14
-174 20 -68 6 -126 12 -130 14 -22 14 -360 60 -591 81 -85 8 -166 16 -180 19
-14 3 -68 12 -120 21 -52 8 -131 24 -175 35 -321 79 -291 75 -592 71 -72 -1
-113 -6 -113 -13 0 -7 -4 -7 -12 0 -16 13 -193 60 -268 72 -30 5 -75 13 -100
19 -25 6 -96 10 -159 11 -77 0 -138 6 -190 19 -184 46 -315 64 -415 57 -101
-7 -139 -17 -170 -44 -28 -26 -96 -170 -106 -227 -5 -27 -23 -104 -40 -170
l-32 -120 7 -280 c3 -154 7 -293 10 -310 9 -75 15 -184 20 -345 6 -207 14
-385 20 -455 3 -27 12 -128 20 -224 9 -96 20 -181 25 -190 8 -16 12 -34 31
-151 12 -72 71 -172 154 -265 25 -27 69 -76 98 -109 77 -86 107 -98 241 -97
194 3 293 56 360 195 45 93 64 195 66 348 0 21 4 26 20 23 25 -5 26 9 3 27
-12 9 -18 27 -19 56 0 40 1 43 23 37 28 -7 30 10 3 25 -30 16 -24 26 14 27 52
1 106 38 158 106 86 114 118 230 85 310 -9 20 -15 37 -14 37 1 0 25 -6 54 -14
28 -8 80 -12 115 -11 224 12 284 18 350 34 l73 19 50 -23 c122 -55 248 -69
531 -61 240 7 600 -12 761 -40 118 -20 128 -21 203 -29 36 -3 81 -8 100 -10
19 -2 71 -7 115 -10 73 -6 217 -24 320 -40 22 -4 94 -18 160 -32 66 -13 142
-29 169 -33 57 -11 270 -68 406 -110 145 -45 414 -107 520 -120 117 -14 265
-39 305 -50 17 -5 84 -19 150 -30 125 -22 134 -24 276 -61 l86 -23 12 -45 c7
-25 29 -90 50 -144 22 -53 35 -100 30 -103 -14 -8 -11 -70 4 -82 13 -11 29
-10 60 3 22 9 213 -20 337 -52 100 -26 145 -29 483 -24 81 1 151 0 156 -3 11
-7 181 -34 256 -40 33 -3 97 -8 143 -11 46 -3 102 -9 125 -14 53 -9 875 -6
942 4 28 4 59 9 70 12 11 2 49 6 85 9 36 3 90 9 120 14 30 5 87 12 125 16 39
3 83 12 99 20 16 8 44 14 62 14 31 0 33 -2 40 -46 6 -42 -1 -236 -12 -344 -12
-119 -32 -259 -38 -269 -2 -3 -7 -28 -10 -55 -4 -27 -9 -52 -10 -55 -2 -3 -7
-27 -10 -53 -28 -207 -217 -824 -332 -1085 -8 -17 -14 -34 -14 -38 0 -24 -114
-247 -169 -330 -25 -38 -67 -105 -92 -147 -25 -43 -48 -76 -51 -72 -9 9 -79
-17 -114 -42 -25 -18 -34 -35 -44 -85 -18 -83 -17 -137 4 -176 l17 -33 -28 0
c-39 0 -186 -53 -218 -78 -69 -54 -141 -200 -165 -332 -11 -59 -10 -86 7 -215
16 -124 139 -243 306 -296 85 -27 141 -24 226 10 39 17 71 28 71 26 0 -2 -9
-28 -19 -57 -61 -169 -22 -257 161 -364 100 -59 165 -86 250 -108 84 -21 106
-20 175 5 220 81 294 152 309 297 l7 62 31 -19 c68 -42 229 -65 317 -46 128
28 235 159 300 370 21 67 5 174 -37 256 -36 72 -73 108 -135 130 -32 12 -59
27 -59 34 0 6 -9 20 -20 30 -19 17 -19 20 -4 36 9 10 13 26 10 37 -4 11 7 44
29 86 54 104 46 189 -26 271 l-31 35 34 58 c45 76 69 128 113 247 20 55 54
136 75 180 38 80 68 177 90 290 16 82 64 275 90 360 30 101 38 140 60 288 19
129 53 409 65 537 4 36 13 112 21 169 8 58 14 125 14 149 l0 45 39 -60 c44
-68 257 -285 303 -309 17 -9 67 -29 112 -44 45 -15 108 -38 141 -50 33 -13 85
-24 115 -26 30 -2 70 -6 88 -10 18 -3 39 -1 45 4 7 6 53 15 104 21 111 14 199
40 273 82 30 18 69 39 85 48 17 9 55 33 85 53 30 20 73 39 95 43 29 5 51 18
80 49 42 44 55 76 85 216 10 47 23 108 29 135 35 164 42 205 47 293 9 152 -26
345 -77 428 -12 19 -19 38 -16 41 10 9 67 -37 93 -76 13 -20 43 -58 65 -86 22
-27 53 -75 69 -106 16 -31 54 -98 84 -149 38 -65 68 -135 102 -238 26 -81 49
-151 50 -157 1 -5 9 -37 19 -70 14 -52 47 -201 59 -275 3 -14 14 -63 26 -110
24 -93 74 -327 93 -430 3 -14 14 -65 26 -115 25 -111 50 -272 57 -374 3 -42
10 -103 14 -136 9 -63 4 -517 -6 -572 -6 -30 -9 -33 -45 -33 -93 0 -123 -46
-117 -180 2 -69 7 -92 22 -109 11 -12 17 -23 15 -24 -2 -2 -25 -15 -51 -30
-61 -35 -121 -105 -160 -186 -57 -119 -49 -240 24 -381 93 -181 180 -274 302
-325 83 -35 267 -5 349 58 l36 27 30 -53 c86 -149 220 -212 396 -183 103 16
198 45 237 73 49 33 67 73 81 174 l10 77 37 -19 c21 -11 72 -23 119 -27 71 -7
93 -5 160 15 156 45 225 89 272 173 11 19 28 49 39 65 42 64 52 89 65 158 16
84 8 150 -32 262 -27 72 -49 106 -142 216 -75 89 -105 102 -193 84 -43 -8 -44
-6 -22 37 24 46 37 169 24 219 -19 69 -36 79 -139 76 l-89 -2 -16 90 c-9 49
-23 146 -32 215 -31 256 -75 513 -130 761 -18 86 -36 174 -39 195 -3 22 -10
62 -15 89 -5 28 -12 61 -14 75 -16 89 -51 240 -80 349 -31 114 -65 258 -102
430 -7 36 -20 83 -28 105 -8 23 -29 82 -47 131 -17 50 -40 109 -50 132 -11 23
-19 45 -19 48 0 14 -109 228 -158 308 -29 49 -86 132 -126 185 -81 106 -88
114 -214 252 -48 52 -105 115 -127 139 -22 24 -74 70 -115 102 -41 32 -88 69
-103 82 l-29 24 49 64 c188 249 268 652 277 1384 3 315 0 377 -28 525 -8 41
-17 104 -21 139 -3 35 -10 71 -14 80 -5 9 -12 36 -16 61 -4 25 -16 67 -27 95
l-20 50 21 14 c25 16 27 38 5 69 -22 31 -54 27 -113 -13 -28 -19 -53 -35 -56
-35 -4 0 -49 -25 -101 -56 -52 -31 -119 -66 -147 -78 -122 -51 -358 -192 -422
-252 -11 -11 -45 -40 -75 -65 -102 -86 -391 -377 -493 -497 -55 -64 -155 -199
-214 -287 -52 -78 -82 -135 -131 -245 -9 -22 -11 -23 -12 -5 -1 11 -3 27 -5
35 -55 275 -52 268 -221 620 -92 192 -101 207 -159 280 -28 36 -79 106 -112
155 -112 163 -242 308 -331 369 -38 25 -108 83 -158 129 -49 45 -107 96 -129
112 -34 25 -161 133 -203 173 -72 67 -190 105 -323 103 -121 -1 -146 -17 -174
-116 -10 -33 -26 -87 -36 -120 -32 -107 -63 -234 -73 -307 -5 -33 -13 -49 -26
-53 -10 -3 -36 -20 -57 -36 -21 -17 -63 -44 -94 -60 -31 -15 -94 -60 -139 -99
-44 -38 -85 -70 -90 -70 -17 0 -149 -138 -186 -195 -78 -119 -164 -337 -164
-417 0 -16 -2 -28 -6 -28 -4 0 -49 19 -119 50 -43 19 -114 39 -218 60 -108 21
-163 22 -317 4 -198 -24 -468 -125 -655 -243 -55 -35 -116 -74 -135 -86 -19
-12 -60 -38 -90 -57 -30 -19 -75 -47 -101 -61 l-45 -27 -35 24 c-31 21 -81 46
-182 90 -20 10 -68 23 -105 31 -79 16 -226 89 -326 161 -243 173 -404 275
-551 347 -142 71 -253 135 -333 195 -44 32 -113 77 -154 100 -103 56 -181 110
-260 179 -37 33 -93 73 -124 89 -31 16 -66 41 -77 56 -25 34 -100 85 -202 138
-44 23 -89 50 -100 59 -11 10 -32 25 -47 34 -15 10 -37 35 -48 57 -20 39 -56
60 -79 45 -6 -3 -11 -5 -11 -3 0 4 -33 160 -90 428 -22 107 -45 220 -51 250
-29 170 -42 265 -45 345 -2 49 -6 97 -10 105 -3 8 -10 186 -15 395 -5 209 -11
416 -15 460 -3 44 0 134 6 200 6 66 17 194 26 285 15 171 23 234 69 510 48
297 74 405 166 680 61 182 119 311 240 535 183 340 270 466 603 875 75 92 721
738 905 905 63 57 118 102 123 99 17 -11 47 8 56 35 11 32 177 168 326 268 56
37 139 94 186 128 79 56 246 165 254 165 5 0 419 230 431 240 23 18 170 77
312 125 129 44 153 50 165 38 27 -28 155 -121 208 -151 181 -102 370 -149 545
-137 166 12 180 16 410 126 123 58 174 72 259 67 56 -2 80 -8 96 -23 12 -11
24 -18 27 -16 11 9 112 -65 115 -84 8 -47 -12 -155 -37 -206 -29 -57 -87 -135
-118 -157 -10 -8 -43 -36 -74 -63 -56 -49 -147 -106 -290 -179 -42 -22 -83
-46 -92 -54 -9 -7 -20 -15 -26 -17 -17 -7 -159 -103 -170 -115 -5 -7 -30 -24
-55 -39 -91 -55 -153 -132 -250 -309 -41 -74 -51 -110 -72 -261 -21 -149 22
-228 164 -305 68 -36 180 -70 231 -70 19 0 63 9 98 21 167 55 320 150 388 243
21 28 46 57 55 65 28 24 143 204 180 281 9 19 41 62 72 95 30 33 72 87 92 120
20 33 67 92 105 131 54 57 86 81 160 118 50 25 110 56 132 68 83 45 83 45 306
58 116 7 178 15 205 27 22 9 42 16 47 15 4 -1 7 2 7 8 0 5 6 10 14 10 16 0
129 75 177 117 17 16 37 39 44 53 15 29 29 126 28 187 -1 49 -1 49 116 68 98
16 114 11 131 -41 18 -52 6 -101 -50 -211 -44 -87 -58 -105 -127 -163 -42 -36
-81 -64 -85 -62 -4 1 -8 -2 -8 -7 0 -5 -46 -41 -102 -79 -131 -90 -233 -194
-291 -297 -62 -111 -67 -134 -56 -264 10 -113 20 -157 62 -277 60 -166 129
-258 232 -305 168 -76 337 -33 507 130 73 70 158 194 158 230 0 12 9 48 20 80
13 40 21 96 24 173 3 88 10 130 31 193 34 100 69 170 101 202 13 13 32 35 40
49 l16 24 20 -39 c19 -38 91 -102 153 -133 45 -24 111 -39 166 -40 58 0 135
40 149 77 5 13 19 29 32 36 13 6 50 33 83 59 75 59 163 115 192 122 15 4 32
-1 48 -14 14 -10 35 -21 47 -24 13 -2 50 -11 83 -20 101 -27 125 -27 236 0
103 25 139 31 139 22 0 -2 -8 -24 -19 -48 -20 -47 -89 -123 -191 -208 -152
-129 -209 -209 -195 -274 3 -17 11 -80 16 -141 5 -60 12 -129 15 -152 8 -58
-26 -118 -142 -245 -51 -56 -118 -144 -151 -196 -32 -52 -67 -104 -78 -116
-65 -72 -122 -159 -170 -258 -94 -198 -99 -216 -101 -428 -1 -102 2 -201 7
-220 5 -19 27 -66 50 -105 23 -38 42 -74 44 -80 1 -5 7 -23 13 -38 28 -68 2
-157 -73 -252 -30 -38 -115 -131 -188 -205 -148 -151 -235 -248 -275 -306 -23
-34 -27 -51 -30 -129 -5 -121 14 -161 136 -293 100 -108 168 -152 235 -152 21
0 65 -10 99 -21 58 -20 68 -21 162 -10 56 7 124 21 151 32 28 10 64 19 80 19
49 1 79 21 183 121 185 179 234 268 333 609 17 61 22 104 23 240 2 142 6 180
29 270 15 58 30 112 34 120 8 18 7 16 17 64 4 21 20 66 35 100 15 33 36 84 46
112 l18 52 56 -77 c31 -42 65 -89 75 -106 50 -77 96 -97 218 -96 137 2 201 34
285 146 85 112 114 202 127 385 6 77 4 94 -24 179 -33 103 -46 244 -29 324 21
93 53 187 64 187 14 0 36 -23 39 -42 4 -25 39 -123 45 -128 4 -3 15 -27 25
-55 28 -76 61 -121 111 -150 38 -23 60 -27 138 -31 150 -6 178 13 471 328 90
96 103 116 136 197 l35 89 60 -50 c33 -27 94 -75 135 -106 41 -31 77 -59 80
-62 8 -10 474 -358 537 -401 32 -23 109 -75 171 -116 63 -42 116 -82 119 -90
7 -18 56 -43 84 -43 12 0 56 -21 98 -47 205 -125 672 -336 1126 -508 39 -14
84 -32 100 -40 17 -7 50 -21 75 -31 25 -9 91 -37 146 -60 121 -52 150 -51 192
5 27 36 59 75 77 95 111 120 185 219 200 266 4 14 15 43 25 65 64 145 164 423
205 570 44 160 55 202 55 221 0 11 11 31 25 44 38 36 61 110 89 295 15 94 35
208 46 255 10 47 26 128 35 180 54 331 73 428 89 453 26 39 34 84 46 267 6 91
17 203 25 250 38 230 61 588 70 1075 7 426 -59 810 -230 1321 -73 220 -82 242
-211 521 -219 475 -326 678 -451 861 -76 109 -176 260 -248 372 -157 244 -444
597 -700 860 -73 74 -161 166 -196 204 -132 143 -228 227 -499 439 -86 67
-310 232 -410 301 -69 47 -129 89 -135 93 -68 51 -325 214 -410 260 -60 33
-132 72 -160 86 -117 64 -470 236 -585 286 -69 30 -143 62 -166 72 -136 60
-394 161 -480 188 -117 36 -335 100 -379 111 -16 4 -107 29 -201 54 -217 58
-386 91 -594 115 -91 11 -277 35 -415 54 -271 38 -468 64 -555 72 -30 2 -136
11 -235 20 -99 8 -200 17 -225 20 -25 2 -88 7 -140 10 -52 4 -111 9 -130 11
-65 8 -954 11 -1130 4z m1135 -85 c22 -2 103 -9 180 -15 77 -7 158 -13 180
-15 22 -2 94 -9 160 -15 225 -21 530 -55 615 -70 30 -5 105 -16 165 -25 61 -8
155 -21 210 -30 55 -8 147 -20 205 -25 97 -10 190 -25 315 -49 59 -11 412
-106 605 -161 188 -54 301 -93 432 -146 62 -25 129 -52 148 -59 75 -27 646
-287 658 -299 2 -3 -27 -40 -64 -84 -38 -43 -87 -102 -108 -130 -22 -28 -44
-48 -50 -44 -6 4 -63 5 -127 3 -192 -5 -466 43 -493 88 -4 5 -30 19 -59 29
-29 11 -91 38 -139 61 -81 39 -168 72 -283 108 -39 12 -75 14 -160 9 -136 -7
-143 -9 -219 -44 -57 -27 -193 -128 -244 -180 -43 -45 -63 -101 -69 -187 -7
-113 3 -138 96 -230 90 -89 150 -131 197 -140 19 -3 34 -8 34 -11 0 -2 -11
-26 -24 -52 -26 -53 -58 -145 -54 -158 1 -5 -1 -33 -5 -62 -13 -88 26 -153
137 -234 105 -76 304 -66 415 21 20 15 57 39 82 53 25 14 54 31 65 36 55 32
198 82 231 82 8 0 -6 -32 -36 -80 -28 -44 -47 -80 -43 -80 4 0 2 -4 -4 -8 -11
-7 -169 -244 -194 -292 -7 -13 -19 -30 -25 -37 -7 -6 -34 -47 -59 -90 -26 -43
-61 -100 -78 -128 -17 -27 -76 -130 -131 -228 -73 -131 -104 -177 -116 -174
-20 4 -100 -29 -121 -50 -14 -14 -98 -71 -222 -149 -81 -52 -173 -131 -244
-209 -86 -96 -176 -169 -290 -232 -251 -141 -449 -292 -599 -458 -38 -43 -81
-89 -95 -103 -23 -24 -108 -136 -195 -257 -20 -27 -78 -106 -129 -175 -88
-119 -178 -278 -206 -365 -7 -22 -27 -69 -45 -105 -49 -98 -82 -210 -109 -365
-41 -235 -24 -316 78 -378 60 -37 98 -46 156 -34 25 4 54 10 65 11 33 5 124
73 166 123 22 27 44 48 50 48 6 0 25 -33 42 -74 49 -117 113 -169 216 -178 59
-5 161 16 189 39 8 7 23 32 33 55 11 25 25 43 34 43 12 0 15 -6 9 -22 -17 -53
-66 -243 -95 -368 -17 -74 -37 -156 -45 -182 -12 -40 -22 -118 -50 -385 -3
-29 -8 -53 -12 -53 -4 0 -47 11 -97 25 -49 14 -99 27 -109 30 -10 2 -33 9 -50
15 -17 5 -74 21 -126 34 -205 53 -368 96 -435 116 -38 11 -77 22 -86 24 -136
33 -181 50 -191 71 -5 12 -31 32 -57 44 -25 12 -68 42 -94 66 -26 25 -65 54
-88 65 l-40 21 53 40 c29 21 72 67 95 102 35 51 42 70 43 110 0 72 -12 90 -99
148 -37 24 -55 29 -104 29 -76 0 -165 -23 -221 -58 -111 -67 -237 -164 -324
-247 -51 -49 -94 -91 -96 -92 -1 -1 -49 14 -107 33 -118 41 -261 58 -396 49
-91 -6 -354 -69 -451 -108 -55 -23 -195 -115 -213 -140 -6 -8 -209 -56 -257
-60 -19 -2 -26 6 -42 48 -10 28 -41 105 -69 172 -78 186 -132 400 -185 733
-39 240 -41 256 -56 425 -16 189 -19 231 -25 385 -3 80 -8 159 -10 175 -2 17
-7 206 -11 420 -3 215 -7 432 -7 483 l-2 92 45 0 c76 1 257 28 287 44 53 27
108 84 135 137 37 75 84 179 93 209 12 41 84 128 139 167 28 21 81 62 117 93
261 218 271 229 297 327 26 101 27 177 2 228 -25 51 -127 159 -159 170 -25 8
-25 3 -4 90 22 90 21 171 0 213 l-18 32 90 89 c101 101 105 106 156 255 29 84
36 118 31 148 -28 176 -251 314 -428 265 -29 -8 -68 -18 -87 -21 -19 -3 -71
-24 -116 -46 -67 -33 -100 -58 -186 -143 -58 -57 -131 -142 -165 -193 -65 -95
-132 -174 -174 -204 l-26 -18 2 146 c1 204 22 805 30 892 2 25 10 92 19 150 8
58 19 164 24 235 5 75 16 145 24 166 17 39 14 37 215 80 104 22 368 61 572 84
74 8 151 17 170 20 117 16 448 40 750 55 166 8 1020 4 1095 -5z m-2920 -322
c-4 -49 -10 -91 -14 -95 -3 -3 -55 -28 -116 -53 -60 -26 -118 -53 -129 -61
-11 -8 -40 -14 -64 -14 l-44 0 6 35 c4 20 17 65 29 102 19 55 29 71 57 88 32
18 237 83 268 84 11 1 12 -16 7 -86z m-408 -37 c-17 -44 -113 -503 -131 -626
-3 -19 -12 -69 -21 -110 -13 -63 -25 -129 -50 -275 -3 -19 -15 -106 -50 -355
-21 -153 -33 -262 -40 -370 -3 -52 -10 -147 -15 -210 -17 -203 -25 -476 -25
-845 0 -308 11 -869 20 -1000 1 -22 6 -128 9 -235 4 -107 9 -211 11 -230 2
-19 6 -66 10 -105 8 -96 53 -468 70 -588 8 -54 15 -116 15 -138 0 -23 6 -55
14 -72 8 -18 24 -77 35 -132 32 -145 80 -323 136 -500 12 -38 32 -104 45 -145
26 -83 132 -354 161 -412 11 -21 19 -41 19 -46 0 -5 -42 -24 -92 -41 -245 -86
-344 -129 -548 -243 -25 -14 -72 -40 -105 -57 -66 -36 -374 -220 -390 -233
-52 -44 -122 -88 -134 -86 -9 2 -24 17 -36 35 -90 140 -143 218 -190 278 -30
38 -62 83 -70 100 -8 16 -28 53 -45 80 -16 28 -37 65 -45 83 -9 18 -38 81 -66
140 -95 200 -147 323 -189 452 -23 68 -81 220 -107 280 -47 106 -163 435 -193
546 -43 163 -155 619 -175 714 -1 8 -13 62 -25 120 -12 58 -24 112 -25 120
-23 105 -97 463 -101 490 -3 19 -9 51 -15 71 -5 20 -18 87 -29 150 -11 63 -22
125 -24 139 -9 46 -55 394 -61 460 -4 36 -10 92 -15 125 -11 70 -17 148 -25
295 -3 58 -8 134 -12 170 -9 95 -9 642 0 805 9 158 29 320 47 381 10 33 21 45
64 69 145 79 397 199 721 342 94 41 208 92 255 113 418 188 893 366 1235 461
196 55 189 53 182 35z m393 -173 c-1 -58 -32 -239 -43 -250 -8 -9 -48 -18 -98
-22 -93 -9 -117 -18 -164 -66 -34 -34 -66 -45 -101 -36 -21 6 -21 6 -4 76 10
39 21 92 24 118 7 47 9 49 64 75 33 15 84 28 124 32 57 5 73 10 100 37 18 17
40 33 48 36 23 8 50 8 50 0z m5496 -444 c33 -11 77 -26 99 -34 22 -7 79 -31
126 -53 47 -23 110 -50 140 -62 30 -12 61 -28 70 -36 52 -47 313 -94 499 -91
l96 2 -26 -29 c-88 -102 -126 -142 -142 -148 -29 -12 -274 21 -393 52 -183 48
-203 58 -386 188 -32 22 -70 47 -85 55 -59 30 -240 27 -329 -5 -77 -29 -185
-126 -185 -167 0 -25 165 -77 290 -91 47 -5 114 -12 150 -15 84 -7 140 -15
165 -22 55 -15 89 -87 65 -134 -25 -47 -54 -69 -130 -94 -137 -46 -210 -110
-231 -206 -13 -58 3 -74 79 -74 64 0 110 20 236 105 128 86 154 95 286 95 122
0 173 -13 191 -47 10 -18 7 -26 -40 -97 -5 -8 -32 -15 -62 -18 -116 -8 -277
-71 -403 -158 -35 -24 -86 -51 -113 -60 -54 -19 -146 -21 -188 -5 -48 18 -122
79 -138 113 -33 70 6 228 85 340 38 53 10 86 -87 102 -65 11 -109 40 -183 122
-70 76 -72 79 -72 131 0 111 13 136 119 224 114 95 157 116 271 132 103 15
149 12 226 -15z m1601 -89 c211 -115 487 -298 826 -547 253 -186 330 -250 313
-260 -8 -4 -24 -25 -36 -45 -50 -86 12 -263 156 -446 52 -65 185 -328 199
-391 9 -40 -4 -40 -77 2 -53 30 -56 33 -38 45 37 23 24 56 -57 143 -74 78
-198 187 -273 239 -19 14 -42 30 -50 37 -8 7 -31 25 -51 40 -39 31 -118 97
-153 127 -11 10 -46 37 -76 60 -30 22 -58 45 -61 49 -4 5 -15 14 -26 20 -11 7
-62 44 -114 83 -52 39 -132 93 -179 121 -47 27 -139 83 -205 123 -264 162
-485 285 -485 270 0 -4 -9 -10 -20 -13 -13 -3 -20 -14 -20 -31 0 -20 9 -30 38
-44 56 -29 304 -170 415 -238 54 -32 112 -68 130 -78 197 -119 366 -245 557
-414 l35 -31 -43 -1 c-120 -1 -191 -111 -178 -279 3 -47 9 -99 12 -114 7 -28
6 -28 -62 23 -111 83 -508 343 -649 425 -55 32 -116 69 -136 82 -42 28 -85 30
-98 5 -14 -26 7 -61 49 -83 119 -62 304 -168 358 -205 35 -24 65 -44 67 -44 3
0 51 -30 107 -67 134 -87 329 -235 365 -277 16 -18 36 -35 44 -38 8 -3 21 -26
28 -49 46 -162 144 -348 267 -513 61 -80 260 -285 321 -328 131 -95 406 -336
488 -427 22 -25 65 -72 96 -105 31 -34 74 -82 97 -108 179 -209 373 -528 388
-641 10 -73 -38 -156 -91 -157 -19 0 -63 24 -75 41 -3 4 -16 21 -30 39 -31 40
-85 131 -111 190 -59 130 -171 354 -208 415 l-42 70 48 -50 c202 -212 272
-294 353 -410 38 -56 49 -65 76 -65 20 0 24 5 24 30 0 18 -8 37 -20 47 -11 10
-20 22 -20 27 0 10 -115 162 -170 223 -192 215 -429 458 -589 603 -57 52 -136
127 -175 165 -39 39 -143 135 -231 214 -88 79 -203 182 -254 230 -52 47 -120
109 -150 136 -31 28 -58 52 -61 55 -3 3 -47 41 -99 85 -52 44 -117 100 -145
125 -28 25 -78 68 -110 95 -32 28 -80 68 -106 90 -96 82 -232 189 -418 328
-23 18 -63 48 -88 68 -26 21 -84 61 -131 90 -47 30 -141 91 -210 136 -183 122
-224 139 -243 103 -17 -33 -2 -60 45 -80 24 -10 97 -54 162 -98 65 -43 138
-89 163 -103 40 -21 218 -144 230 -159 3 -4 37 -28 75 -55 39 -27 72 -52 75
-55 3 -3 23 -19 45 -35 22 -16 54 -41 70 -55 17 -14 51 -41 75 -60 58 -46 181
-150 254 -214 32 -28 73 -62 89 -76 17 -14 38 -32 47 -40 9 -8 52 -46 95 -85
44 -38 94 -83 110 -100 17 -17 48 -46 71 -65 23 -19 117 -104 210 -189 93 -85
211 -193 263 -240 52 -47 115 -106 140 -129 25 -24 91 -85 146 -135 190 -175
214 -200 175 -178 -112 63 -225 48 -444 -61 -33 -16 -89 -53 -125 -82 -91 -73
-131 -95 -186 -103 l-47 -6 -82 85 c-110 114 -320 429 -412 618 -27 55 -85
220 -78 220 5 0 64 -40 74 -50 3 -3 50 -41 105 -85 161 -128 322 -274 441
-399 100 -105 113 -116 135 -108 16 6 25 18 27 37 3 24 -14 45 -130 159 -73
72 -153 149 -178 171 -25 22 -83 74 -130 116 -47 41 -125 106 -175 144 -49 38
-115 89 -145 114 -30 25 -56 46 -57 46 -1 0 -7 43 -13 95 -20 167 -35 210 -93
272 -110 116 -236 201 -319 214 -61 10 -140 -20 -202 -77 -30 -27 -58 -58 -61
-68 -5 -16 -14 -14 -88 23 -45 23 -84 44 -87 47 -8 8 -191 95 -233 110 -35 12
-40 12 -52 -5 -22 -29 -4 -55 55 -80 30 -12 101 -48 158 -79 56 -31 104 -57
107 -57 3 0 25 -12 49 -27 l44 -28 -14 -40 c-21 -61 -35 -196 -29 -277 19
-234 78 -458 183 -689 11 -24 31 -69 44 -99 37 -83 111 -210 208 -356 l87
-131 -64 49 c-35 26 -68 48 -73 48 -5 0 -32 20 -60 45 -28 25 -55 45 -60 45
-5 0 -12 9 -15 20 -3 11 -11 20 -16 20 -6 0 -29 18 -52 39 -49 46 -87 80 -140
124 -53 44 -86 74 -212 196 -60 58 -135 126 -165 151 -30 25 -56 48 -58 52 -2
5 -8 8 -13 8 -6 0 -20 9 -32 21 -74 70 -276 209 -305 209 -36 0 -40 -61 -6
-74 27 -10 262 -187 320 -241 6 -5 21 -17 34 -25 25 -17 51 -42 275 -255 88
-84 176 -166 195 -181 19 -16 40 -33 46 -39 6 -5 41 -37 79 -70 37 -33 102
-90 144 -128 42 -37 82 -65 89 -62 7 2 56 -39 109 -92 82 -83 98 -95 113 -85
16 10 30 -4 111 -101 115 -140 459 -482 790 -786 294 -271 323 -312 504 -706
85 -186 127 -368 103 -445 -23 -73 -102 -111 -201 -96 -23 3 -62 8 -87 12
-110 15 -285 88 -395 166 -22 16 -56 39 -75 52 -145 96 -376 314 -481 454 -40
53 -92 122 -114 152 -23 30 -115 163 -204 295 -89 132 -180 265 -202 295 -74
102 -138 197 -205 306 -111 182 -154 244 -285 418 -41 54 -89 119 -108 145
-90 120 -228 230 -334 266 -152 51 -356 -33 -548 -226 -52 -51 -101 -113 -123
-152 l-37 -66 -52 20 c-29 12 -59 23 -67 26 -8 3 -28 11 -45 18 -54 23 -190
76 -200 78 -5 1 -12 4 -15 7 -3 3 -25 15 -48 27 -49 26 -87 22 -95 -7 -8 -32
13 -46 138 -95 150 -58 207 -81 270 -110 28 -12 60 -25 73 -29 19 -7 22 -14
22 -65 0 -74 30 -193 69 -271 33 -66 110 -182 198 -298 14 -18 23 -35 22 -37
-4 -2 -59 21 -174 75 -64 30 -168 71 -195 77 -14 3 -36 14 -50 23 -32 22 -208
100 -226 100 -8 0 -22 4 -32 9 -79 43 -112 50 -132 26 -29 -35 -2 -55 160
-115 42 -16 116 -48 165 -72 50 -24 117 -55 150 -68 33 -13 120 -52 194 -87
74 -35 142 -63 151 -63 23 0 33 26 19 53 -8 17 -5 16 10 -4 17 -22 183 -224
250 -304 13 -16 122 -150 216 -267 212 -262 213 -263 615 -627 157 -143 329
-304 474 -446 62 -61 166 -183 209 -246 52 -76 58 -118 22 -164 -35 -47 -95
-86 -148 -96 -41 -8 -120 6 -192 33 -75 29 -227 150 -430 343 -124 118 -273
248 -424 370 -60 49 -243 220 -316 295 -229 236 -388 369 -570 472 -105 60
-144 71 -240 72 -82 0 -129 -16 -180 -61 -39 -35 -103 -119 -135 -178 -29 -54
-31 -66 -26 -120 2 -33 8 -70 11 -82 7 -21 2 -20 -122 18 -250 78 -333 90
-347 52 -12 -31 12 -46 120 -73 249 -63 426 -138 472 -199 51 -67 87 -103 202
-200 168 -141 223 -182 445 -332 44 -30 85 -58 92 -64 7 -5 55 -39 108 -75 53
-36 151 -105 218 -155 195 -143 344 -239 562 -360 129 -71 257 -152 316 -199
15 -12 39 -30 55 -41 52 -37 319 -262 404 -341 89 -83 204 -200 240 -246 28
-36 77 -146 101 -227 11 -36 22 -72 24 -79 5 -13 -31 9 -86 52 -14 12 -36 28
-49 36 -12 8 -95 70 -183 138 -89 68 -180 136 -202 152 -22 16 -47 35 -55 43
-8 7 -64 53 -123 101 -82 67 -107 92 -102 105 26 60 11 97 -62 156 -60 49
-117 71 -157 61 l-26 -6 33 -31 c51 -49 -43 20 -143 106 -20 16 -53 44 -74 60
-21 17 -52 42 -70 56 -17 15 -86 73 -154 130 -68 57 -144 119 -170 137 -26 19
-83 61 -126 95 -44 34 -96 73 -116 87 -21 14 -52 37 -71 53 -50 40 -209 160
-228 172 -9 6 -30 19 -46 31 -45 31 -108 61 -219 106 -102 40 -209 86 -325
140 -185 85 -431 173 -638 228 -65 17 -133 36 -152 42 l-34 10 7 97 c16 218
23 266 82 516 8 33 23 98 34 145 37 166 193 670 240 775 5 11 34 83 65 160 31
77 71 174 87 215 17 41 57 130 89 197 33 67 59 124 59 127 0 2 15 37 34 78 19
40 64 145 101 232 62 146 121 279 178 396 12 25 57 96 100 159 79 114 102 161
91 193 -3 10 6 37 20 61 14 24 26 49 26 57 0 26 242 492 348 670 46 78 77 131
96 165 15 27 51 82 171 265 56 85 108 166 115 180 7 14 16 27 19 30 9 7 61 89
61 95 0 13 184 282 211 308 16 16 35 43 43 60 8 18 29 53 48 80 l35 47 13 -25
c8 -14 22 -25 34 -25 74 0 274 -91 441 -199 39 -25 78 -50 87 -56 58 -36 281
-195 374 -267 141 -109 148 -113 168 -92 9 9 13 21 9 27 -4 7 -6 19 -5 28 2
11 -23 35 -70 68 -40 27 -82 57 -93 66 -71 55 -402 281 -499 340 -176 107
-364 189 -407 178 -18 -5 -15 3 22 49 82 103 124 153 149 178 45 45 172 188
188 212 19 28 133 160 147 170 22 17 55 4 212 -82z m-7144 -3 c7 -19 -1 -169
-10 -177 -14 -13 -137 -75 -178 -90 -22 -8 -77 -14 -122 -15 -52 0 -87 -5 -94
-12 -7 -7 -24 -13 -37 -13 -18 0 -22 4 -18 18 3 9 8 33 11 52 3 19 7 42 9 50
1 8 6 36 11 63 l7 47 82 -1 c77 -1 86 1 175 45 94 46 154 58 164 33z m1017
-232 c16 -9 33 -16 37 -17 5 -1 28 -20 52 -42 78 -73 83 -114 29 -264 -30 -84
-35 -91 -139 -196 -119 -119 -130 -145 -87 -188 18 -18 22 -33 22 -73 -1 -68
-22 -155 -44 -180 -28 -33 -31 -42 -19 -68 12 -25 35 -37 76 -37 27 0 89 -53
128 -110 34 -49 36 -118 7 -197 -32 -84 -44 -97 -282 -287 -180 -145 -214
-182 -267 -296 -130 -282 -130 -282 -301 -317 -153 -31 -191 -39 -227 -50 -16
-6 -44 -8 -61 -6 -20 2 -48 -5 -75 -19 -29 -15 -67 -24 -110 -26 -55 -3 -78 1
-143 27 -43 17 -79 31 -81 31 -2 0 -14 -18 -26 -39 -19 -34 -72 -72 -83 -60
-3 2 -7 63 -10 134 l-7 130 35 19 c57 30 124 23 246 -28 10 -4 31 6 55 27 87
74 192 107 343 107 l100 0 53 68 c69 88 167 181 200 188 15 3 60 43 111 98 49
52 125 120 181 159 164 117 177 133 170 220 -6 78 -15 92 -69 104 -26 6 -81 9
-121 7 -93 -6 -137 12 -153 62 -7 19 -9 47 -5 61 3 14 46 67 94 117 103 107
115 137 81 210 -38 84 -21 147 71 255 56 65 112 148 175 259 34 59 36 65 20
80 -27 27 -149 23 -201 -6 -160 -90 -219 -144 -271 -251 -20 -42 -47 -92 -60
-112 -13 -22 -23 -53 -23 -75 0 -22 -4 -72 -9 -112 -6 -55 -5 -75 4 -83 19
-16 26 -62 14 -93 -6 -16 -30 -51 -54 -80 -39 -46 -44 -58 -50 -118 -6 -61 -4
-74 23 -133 16 -36 46 -85 65 -108 56 -68 69 -109 56 -170 -6 -29 -18 -64 -28
-78 -32 -49 -187 -210 -236 -245 -47 -34 -50 -35 -92 -25 -66 17 -149 4 -239
-36 -105 -48 -203 -56 -265 -24 l-41 21 -33 -35 c-27 -29 -41 -35 -72 -35 -63
1 -74 16 -74 100 0 90 20 122 98 157 63 29 108 27 173 -7 49 -25 87 -20 137
18 18 14 55 36 83 48 42 20 60 22 128 18 116 -8 150 9 242 118 102 122 85 278
-31 278 -39 0 -64 -15 -124 -73 -22 -21 -67 -60 -101 -85 -54 -42 -66 -47
-115 -48 -30 -1 -85 -5 -122 -9 -78 -9 -132 6 -194 56 -43 34 -58 36 -102 9
-61 -38 -65 -33 -59 88 3 59 6 108 6 110 1 2 17 10 36 18 70 29 137 14 225
-51 26 -19 53 -35 59 -35 32 0 199 65 244 95 28 19 56 35 62 35 30 0 88 24
115 47 45 37 90 132 90 188 0 36 -5 51 -25 69 -60 55 -147 35 -254 -58 -24
-22 -46 -31 -73 -33 -22 -1 -55 -11 -74 -22 -33 -20 -35 -20 -67 -2 -82 48
-147 35 -236 -44 -91 -81 -94 -78 -86 58 3 61 8 119 11 128 6 23 106 53 152
45 21 -3 61 -17 90 -31 28 -14 59 -25 67 -25 27 0 69 27 93 59 12 17 45 46 73
65 l50 34 25 -25 c21 -21 30 -24 67 -18 47 8 74 31 157 140 29 39 68 88 86
110 18 23 40 54 48 70 24 46 194 224 250 261 57 38 159 81 220 94 54 12 149 4
186 -15z m5221 -151 c47 -7 99 -39 99 -61 0 -10 -20 -45 -45 -78 l-45 -60
-143 4 c-148 3 -187 13 -207 50 -28 53 4 123 63 139 18 5 61 10 97 11 35 1 66
4 68 6 4 4 48 0 113 -11z m-6244 -139 l2 -100 -67 -40 c-62 -37 -72 -40 -142
-40 -52 0 -90 6 -123 20 l-49 20 -27 -31 c-36 -40 -71 -64 -94 -64 -20 0 -21
-12 4 175 6 44 15 85 20 91 15 18 90 34 129 28 19 -3 58 -15 87 -25 58 -22 62
-21 153 41 30 20 55 30 75 28 l30 -3 2 -100z m-2946 -46 c12 -6 18 -17 15 -27
-3 -9 -6 -59 -8 -109 -1 -79 -5 -96 -22 -112 -47 -44 -145 -54 -223 -25 -39
15 -45 15 -61 2 -9 -9 -28 -21 -41 -28 -23 -12 -23 -11 -18 21 4 19 7 78 8
132 l1 97 49 0 c26 0 72 -9 101 -21 29 -11 54 -17 55 -12 2 4 12 23 23 41 29
47 79 64 121 41z m-446 -121 c-3 -51 -8 -131 -10 -178 -3 -47 -7 -110 -10
-140 -12 -155 -15 -242 -19 -540 -2 -179 -1 -368 4 -420 4 -52 11 -126 14
-165 21 -272 67 -596 111 -785 50 -219 64 -286 66 -327 3 -39 0 -46 -41 -84
-25 -23 -76 -66 -115 -98 -38 -31 -83 -70 -100 -87 -16 -17 -50 -47 -75 -66
-78 -62 -200 -187 -306 -314 -23 -27 -52 -60 -64 -74 -12 -14 -50 -61 -83
-105 -56 -73 -103 -128 -164 -192 -90 -94 -261 -341 -343 -497 -58 -110 -52
-100 -173 -312 -179 -314 -293 -569 -415 -925 -60 -174 -86 -246 -103 -284
-59 -134 -233 -697 -278 -905 -7 -30 -21 -91 -32 -136 -11 -45 -24 -105 -29
-135 -5 -30 -11 -65 -14 -79 -2 -14 -12 -70 -21 -125 -9 -55 -24 -152 -35
-215 -10 -63 -24 -164 -30 -225 -6 -60 -13 -121 -15 -135 -4 -24 -17 -200 -30
-400 -22 -332 -20 -751 4 -985 6 -60 13 -135 16 -165 26 -348 73 -700 119
-895 36 -154 93 -372 117 -450 15 -50 45 -187 64 -298 7 -38 26 -107 80 -287
81 -270 122 -410 170 -585 25 -93 74 -255 107 -360 34 -104 63 -194 64 -200
38 -155 342 -782 477 -984 156 -234 290 -410 395 -518 33 -35 57 -63 53 -63
-23 1 -192 62 -281 103 -30 14 -120 53 -200 87 -80 33 -179 76 -220 95 -41 18
-142 63 -225 99 -188 83 -225 102 -300 150 -33 21 -98 56 -145 78 -47 21 -92
43 -100 47 -9 5 -30 12 -47 15 -113 25 -591 396 -760 589 -54 62 -110 123
-124 137 -15 14 -65 84 -112 155 -82 127 -99 156 -187 320 -23 44 -58 101 -76
127 -18 26 -45 68 -59 95 -14 26 -44 77 -67 113 -106 166 -284 569 -412 930
-47 132 -118 317 -142 368 -26 55 -85 199 -89 217 -1 5 -5 17 -8 25 -27 66
-126 386 -168 545 -96 365 -231 1024 -288 1410 -49 330 -62 498 -62 795 1 157
3 308 6 335 2 28 9 106 15 175 16 187 37 321 87 565 41 204 62 291 115 485 28
106 87 301 94 311 3 5 7 17 9 27 2 11 22 63 45 118 23 54 62 149 87 209 26 61
61 142 80 182 18 40 33 74 33 77 0 15 350 725 370 751 5 6 29 53 55 105 42 84
142 270 198 370 11 19 42 75 69 124 28 49 68 119 90 155 22 36 70 116 106 176
124 206 148 245 192 306 19 27 76 108 125 180 140 204 250 355 313 433 31 39
60 75 64 81 4 5 22 28 40 50 19 22 69 85 112 139 87 109 249 297 390 451 95
103 273 285 280 285 3 0 17 12 33 28 37 35 143 131 174 157 167 139 316 257
417 331 225 163 456 325 522 365 36 22 94 59 130 81 84 53 462 278 467 278 2
0 1 -42 -2 -92z m3976 75 c-5 -10 -17 -27 -26 -38 -16 -19 -17 -19 -3 5 26 46
29 50 34 50 3 0 0 -8 -5 -17z m7856 -295 c59 -49 210 -204 416 -425 l39 -41
-17 -32 c-16 -31 -16 -39 0 -134 9 -56 22 -122 30 -147 14 -49 10 -199 -6
-230 -12 -24 -179 -81 -237 -81 -69 0 -155 12 -170 25 -7 6 -33 10 -57 10 -39
0 -48 4 -67 33 -45 65 -111 82 -153 39 -30 -29 -31 -58 -5 -108 11 -20 20 -46
20 -56 0 -11 16 -40 35 -65 19 -26 35 -56 35 -67 0 -13 22 -43 53 -73 29 -28
73 -78 97 -111 87 -117 134 -166 214 -222 44 -31 108 -82 141 -113 97 -91 209
-178 253 -195 30 -12 58 -39 113 -108 40 -51 98 -119 129 -152 31 -33 84 -96
118 -140 34 -44 82 -105 107 -135 28 -34 45 -65 45 -81 0 -14 24 -76 54 -137
107 -216 133 -364 123 -683 -7 -257 -20 -273 -222 -273 -124 -1 -166 13 -247
82 -23 21 -56 46 -73 57 -40 25 -167 137 -232 205 -56 58 -119 168 -148 260
-21 66 -77 175 -108 210 -43 49 -150 131 -210 161 -110 56 -193 27 -255 -89
-17 -33 -39 -65 -47 -72 -23 -19 -80 -6 -170 40 -44 23 -120 62 -170 87 -94
49 -116 69 -294 262 -130 140 -218 266 -305 435 -82 159 -99 210 -116 336 -16
119 -28 164 -56 201 -15 20 -24 47 -24 68 -1 48 -32 115 -64 136 -35 23 -112
22 -145 -3 -43 -31 -69 -80 -77 -138 -9 -75 -2 -122 45 -317 62 -251 114 -391
203 -542 140 -238 197 -312 360 -462 64 -60 133 -131 154 -158 74 -98 188
-225 223 -248 20 -13 82 -54 139 -91 57 -37 136 -97 175 -133 40 -36 127 -111
195 -166 70 -56 139 -121 160 -150 20 -29 79 -108 130 -175 101 -135 172 -270
222 -421 17 -52 51 -146 75 -210 62 -162 69 -203 69 -391 1 -164 1 -165 -32
-247 -27 -65 -44 -92 -80 -124 -104 -91 -250 -114 -400 -63 -85 29 -555 265
-625 313 -49 33 -313 307 -426 441 -73 86 -139 186 -272 410 -72 123 -160 240
-245 330 -50 53 -170 232 -215 321 -44 89 -112 189 -171 254 -27 30 -61 76
-76 103 -51 92 -205 258 -272 292 -46 24 -221 60 -288 60 -40 0 -57 -6 -81
-26 -40 -34 -48 -69 -56 -249 -14 -307 35 -406 386 -780 48 -51 103 -121 123
-155 53 -89 83 -121 241 -257 77 -67 174 -155 215 -198 84 -85 243 -221 365
-310 44 -32 109 -85 145 -118 36 -33 100 -84 142 -114 71 -50 147 -126 210
-213 39 -52 204 -387 222 -449 9 -30 16 -80 16 -111 0 -51 -3 -59 -36 -91 -20
-18 -58 -62 -86 -96 -45 -57 -56 -65 -115 -83 -36 -11 -89 -23 -117 -26 -61
-7 -219 20 -256 44 -14 9 -71 40 -127 69 -57 29 -145 84 -196 121 -51 38 -113
82 -137 97 -52 33 -193 139 -302 228 -364 296 -385 311 -466 348 -46 21 -102
54 -125 74 -23 19 -87 70 -142 113 -111 87 -133 113 -191 221 -56 105 -113
161 -201 196 -62 24 -82 27 -145 23 -80 -5 -118 -23 -136 -64 -33 -71 1 -139
113 -230 39 -31 113 -99 165 -150 53 -52 117 -109 142 -127 26 -17 82 -59 125
-92 43 -34 118 -85 166 -115 49 -30 121 -83 160 -118 64 -56 228 -158 357
-222 26 -13 89 -67 150 -129 97 -99 113 -111 215 -161 61 -29 137 -72 170 -96
82 -57 234 -132 300 -147 50 -11 63 -22 218 -173 159 -154 167 -164 215 -260
27 -54 72 -143 101 -196 36 -69 64 -141 95 -250 55 -195 60 -219 41 -211 -8 3
-15 13 -15 23 0 25 -82 272 -113 341 -31 69 -93 144 -223 270 -121 118 -187
176 -284 254 -41 32 -81 65 -88 72 -8 7 -30 26 -50 41 -21 15 -39 30 -42 33
-3 3 -43 34 -90 67 -47 34 -89 65 -95 70 -19 15 -190 118 -270 163 -89 49
-100 55 -206 119 -41 24 -76 47 -79 50 -3 3 -32 23 -65 44 -33 22 -71 50 -85
62 -39 34 -229 169 -444 315 -254 173 -235 159 -281 194 -345 258 -498 439
-500 590 0 35 5 67 13 75 6 8 31 41 54 73 23 32 61 70 84 86 37 24 51 27 112
26 83 -2 129 -22 274 -118 136 -91 252 -192 464 -406 101 -102 239 -231 305
-286 67 -55 127 -105 133 -110 6 -6 38 -33 71 -60 79 -65 147 -127 275 -249
228 -217 360 -310 492 -346 137 -37 247 -11 338 80 53 53 72 94 73 156 1 63
-34 126 -133 243 -111 131 -450 460 -710 687 -242 213 -341 315 -530 549 -273
338 -327 404 -400 490 -90 107 -267 358 -304 433 -28 56 -66 187 -66 229 0 23
1 23 30 8 37 -19 54 -19 70 0 17 20 -8 58 -50 76 -25 12 -30 18 -25 38 17 69
165 229 276 299 101 64 160 86 235 86 83 0 141 -25 232 -102 111 -93 323 -374
502 -663 49 -79 90 -142 136 -205 145 -205 195 -277 229 -329 99 -154 234
-352 257 -380 10 -12 97 -129 118 -159 68 -99 234 -268 363 -371 21 -16 44
-35 50 -40 7 -6 63 -48 126 -93 217 -157 400 -224 611 -226 106 -1 118 1 150
23 103 71 124 108 122 216 -2 140 -45 260 -223 630 -99 207 -152 272 -415 515
-403 373 -696 665 -809 805 -22 28 -42 52 -45 55 -29 26 -216 297 -352 510
-139 217 -267 543 -315 798 -19 104 -22 318 -4 382 36 134 122 238 206 251 56
9 145 -42 249 -141 75 -72 94 -106 102 -183 2 -29 7 -61 9 -72 3 -14 -3 -24
-18 -30 -34 -15 -32 -43 6 -80 19 -18 37 -48 41 -67 14 -73 80 -267 114 -333
145 -290 446 -701 540 -736 76 -29 195 15 317 117 90 75 112 87 235 129 121
42 164 44 233 9 121 -61 207 -198 416 -657 50 -109 123 -209 185 -254 85 -60
215 -12 263 97 22 51 21 144 -4 212 -50 136 -272 476 -408 623 -20 22 -76 85
-125 140 -78 88 -173 181 -313 305 -35 31 -124 103 -247 200 -68 54 -169 154
-233 230 -40 47 -74 87 -77 90 -22 22 -118 175 -149 237 -57 115 -143 364
-166 481 -26 128 2 241 63 257 30 7 94 -23 142 -67 41 -37 96 -87 203 -183 43
-38 106 -96 140 -129 70 -66 144 -116 225 -152 121 -53 175 -14 158 114 -9 69
-123 295 -226 449 -100 148 -141 236 -144 302 -1 45 7 53 56 60 4 1 24 -13 45
-31z m-11386 -225 c0 -43 1 -99 2 -126 2 -45 0 -48 -33 -64 -54 -27 -173 -24
-232 5 -37 19 -51 21 -67 13 -11 -6 -28 -11 -38 -11 -17 0 -19 8 -17 68 0 37
5 91 9 121 l7 54 55 -6 c34 -4 74 -17 108 -36 30 -17 60 -31 66 -31 7 0 27 18
46 39 18 22 43 42 56 44 12 2 25 5 30 6 4 0 7 -34 8 -76z m2 -345 c13 -7 17
-23 18 -76 0 -37 3 -79 5 -95 6 -37 -33 -54 -90 -37 -36 11 -41 10 -75 -18
-20 -16 -47 -49 -61 -73 -31 -54 -97 -91 -150 -86 -34 4 -35 6 -41 53 -3 27
-5 56 -3 64 1 8 3 32 3 53 1 22 6 37 14 37 6 0 22 15 34 34 23 36 84 88 145
125 63 38 150 46 201 19z m3717 -44 c0 -8 -4 -12 -10 -9 -5 3 -10 10 -10 16 0
5 5 9 10 9 6 0 10 -7 10 -16z m-3677 -476 c22 -17 36 -160 18 -182 -40 -49
-243 -82 -314 -53 -35 15 -41 15 -72 0 -19 -9 -37 -15 -39 -12 -2 2 -7 52 -11
111 l-6 107 28 7 c15 3 35 8 44 10 8 2 44 -5 80 -16 73 -24 107 -21 176 16 52
27 72 30 96 12z m8180 -154 c3 -4 -23 -64 -58 -134 -36 -70 -65 -132 -65 -138
0 -18 -110 -131 -159 -164 -25 -17 -80 -59 -121 -93 -41 -33 -103 -80 -137
-104 -34 -24 -64 -49 -67 -56 -7 -20 -182 -148 -244 -179 -67 -34 -144 -84
-202 -130 -27 -22 -61 -39 -85 -42 -35 -6 -56 -23 -161 -128 -66 -66 -132
-137 -145 -157 -114 -168 -299 -448 -299 -452 0 -3 -21 -41 -47 -84 -66 -111
-177 -344 -207 -436 -32 -94 -34 -162 -7 -176 25 -14 77 39 73 75 -3 19 1 24
17 24 29 0 81 50 191 184 119 145 172 174 233 126 56 -44 55 -104 -4 -208 -64
-113 -64 -97 0 -161 37 -37 62 -71 71 -99 l14 -43 18 49 c35 94 99 122 214 92
33 -9 65 -20 72 -24 12 -7 12 -32 1 -51 -4 -5 -9 -27 -13 -47 -7 -37 -8 -38
-50 -38 -53 0 -88 -25 -110 -79 -12 -33 -22 -42 -53 -50 -103 -29 -193 14
-224 106 -6 21 -22 54 -34 73 -12 19 -25 45 -29 57 -17 54 -101 33 -153 -36
-89 -121 -201 -168 -292 -122 -47 24 -71 66 -71 125 0 19 11 99 25 178 23 138
45 212 98 328 13 30 34 81 46 112 44 120 108 236 182 328 20 25 62 83 94 130
213 315 450 569 660 707 170 112 197 129 300 188 86 50 121 79 245 204 80 80
165 159 190 175 25 16 58 38 74 49 179 123 204 136 219 121z m4368 -184 c200
-301 238 -360 296 -465 52 -95 145 -280 148 -295 0 -3 10 -25 22 -50 11 -25
42 -91 67 -148 25 -56 63 -137 85 -180 108 -216 285 -767 326 -1012 3 -19 10
-60 16 -90 8 -39 8 -55 0 -58 -34 -11 -59 -54 -125 -217 -40 -99 -91 -210
-113 -247 -41 -66 -58 -89 -197 -252 -38 -44 -84 -101 -102 -126 -18 -25 -58
-66 -87 -92 -59 -51 -77 -94 -77 -183 0 -26 -9 -106 -19 -178 -10 -73 -24
-174 -31 -225 -14 -113 -47 -238 -96 -369 -94 -253 -364 -729 -531 -939 -26
-33 -62 -81 -80 -107 -18 -25 -65 -71 -106 -101 -83 -61 -100 -91 -91 -161 10
-69 -13 -176 -42 -200 -27 -22 -35 -57 -69 -315 -19 -149 -46 -269 -81 -367
-30 -81 -16 -78 -132 -27 -29 13 -55 24 -58 24 -11 0 -280 138 -344 176 -54
33 -65 43 -62 62 2 14 -8 41 -23 64 -42 63 -48 96 -25 128 10 14 25 53 33 86
21 84 103 350 133 431 33 87 69 249 85 381 12 97 6 234 -18 369 l-5 31 118 1
c187 2 282 15 355 49 79 37 157 115 229 230 28 46 70 107 94 136 36 45 115
157 180 259 13 20 25 74 38 176 18 134 19 163 7 358 -6 116 -9 219 -5 228 11
30 -56 354 -98 474 -9 24 -16 47 -16 52 0 5 46 6 103 3 148 -9 300 15 392 62
39 20 75 35 80 34 56 -12 109 21 229 138 62 62 93 102 122 159 l39 76 -1 251
c0 214 -4 270 -23 381 -47 269 -102 378 -326 646 -95 114 -311 326 -415 406
-47 37 -103 85 -125 108 -26 28 -61 50 -100 64 -44 17 -79 40 -131 89 -39 37
-98 93 -132 125 -34 31 -62 62 -62 67 0 5 12 12 28 16 36 8 311 90 387 116 33
11 80 32 105 47 25 15 58 31 73 35 15 3 31 14 34 23 8 20 1 28 124 -157z
m-12489 -79 c14 -12 30 -149 19 -168 -5 -10 -31 -30 -58 -43 -66 -34 -150 -34
-222 0 l-53 24 -17 -21 c-9 -12 -24 -34 -34 -48 -27 -38 -43 -31 -51 23 -28
191 -28 203 9 221 17 8 53 17 82 19 51 4 71 0 145 -32 33 -14 38 -14 52 -1 36
36 102 50 128 26z m2818 -490 l0 -109 -77 -33 c-99 -42 -194 -46 -260 -11 -55
29 -69 28 -122 -8 -76 -52 -81 -47 -81 79 l0 109 38 18 c54 28 173 26 228 -3
36 -19 47 -21 80 -11 22 5 62 25 89 44 28 18 62 34 78 34 l27 0 0 -109z
m-2734 49 c2 -8 9 -47 17 -86 l14 -72 -46 -35 c-103 -78 -152 -84 -260 -36
l-70 31 -27 -21 c-32 -25 -40 -20 -48 29 -3 20 -12 64 -20 98 l-14 63 26 17
c42 27 126 23 189 -10 29 -16 60 -28 69 -28 9 0 34 16 56 36 32 29 46 35 75
32 23 -2 37 -9 39 -18z m7624 -115 c10 -13 7 -27 -19 -79 -17 -35 -31 -66 -31
-70 0 -3 -14 -35 -30 -70 l-31 -64 -127 -52 c-225 -93 -334 -158 -487 -294
l-67 -59 47 -16 c26 -8 63 -29 81 -47 49 -46 46 -77 -20 -193 -56 -97 -80
-150 -72 -158 2 -2 13 12 25 31 12 19 38 45 57 57 29 18 43 20 90 14 30 -3 73
-4 95 0 32 6 42 13 53 38 7 18 23 41 35 51 23 21 27 16 11 -12 -8 -15 -72
-165 -110 -260 -11 -29 -17 -33 -42 -30 -25 4 -33 -1 -59 -39 -38 -55 -98 -87
-152 -80 -48 7 -136 64 -174 113 -26 34 -28 45 -28 118 1 60 6 93 22 127 l21
47 -29 6 c-43 8 -79 51 -79 95 0 62 20 161 41 207 24 49 98 130 174 190 28 21
52 42 55 45 3 4 48 36 101 71 65 43 155 89 280 142 101 43 190 83 197 89 7 5
19 24 28 42 8 18 25 37 37 43 33 16 93 14 107 -3z m-4889 -215 c5 0 9 -47 9
-104 l0 -104 -36 -31 c-129 -114 -261 -135 -366 -57 -26 18 -29 19 -46 2 -25
-22 -78 -38 -79 -22 -1 6 -4 57 -7 113 l-7 103 33 20 c46 29 102 22 180 -24
42 -26 69 -35 85 -32 12 4 51 33 86 66 65 61 101 82 125 74 8 -2 18 -4 23 -4z
m-2649 -86 c3 -21 13 -67 21 -102 l15 -62 -31 -24 c-78 -58 -181 -68 -289 -29
l-48 17 -30 -29 c-16 -16 -32 -26 -35 -24 -2 3 -12 40 -21 82 -16 73 -16 78 0
96 14 15 15 24 7 39 -8 16 -7 21 5 26 31 12 120 6 186 -13 75 -22 90 -18 155
40 19 16 40 28 46 26 7 -2 15 -21 19 -43z m-496 -348 c21 -87 44 -165 52 -172
7 -8 15 -37 17 -66 1 -29 23 -134 48 -233 25 -99 48 -191 50 -205 3 -14 8 -32
11 -40 3 -8 7 -26 10 -40 19 -111 61 -244 154 -490 22 -58 62 -163 88 -235
100 -277 232 -570 280 -626 8 -8 14 -19 14 -24 0 -4 20 -41 45 -82 25 -40 45
-76 45 -79 0 -2 11 -21 23 -42 23 -35 60 -104 197 -367 34 -66 88 -157 119
-203 31 -45 73 -109 93 -141 l37 -59 -82 -68 c-69 -58 -496 -473 -751 -729
-75 -76 -241 -263 -296 -335 -19 -24 -48 -58 -63 -76 -35 -39 -196 -260 -234
-319 -15 -25 -32 -44 -38 -42 -5 2 -19 28 -30 58 -32 87 -84 181 -124 222 -20
21 -64 52 -99 68 -117 56 -227 56 -346 0 -97 -47 -144 -99 -209 -232 -58 -120
-90 -224 -113 -374 -34 -218 -35 -237 -23 -420 11 -172 23 -262 70 -510 21
-116 24 -123 124 -330 35 -71 66 -145 70 -162 6 -30 19 -39 48 -34 5 1 6 -11
3 -26 -11 -51 -34 -227 -41 -303 -3 -41 -8 -91 -10 -110 -27 -232 -29 -301
-19 -657 l7 -242 -52 19 c-59 23 -148 25 -203 6 -21 -8 -38 -13 -38 -12 0 0 7
33 15 71 44 208 -7 375 -131 432 -58 26 -147 33 -197 14 -70 -27 -198 -139
-256 -224 -81 -119 -120 -243 -125 -392 -5 -136 14 -257 62 -400 48 -143 103
-382 96 -418 -5 -33 17 -46 68 -41 70 6 233 53 313 89 204 93 181 80 386 238
l86 67 18 -118 c9 -64 23 -146 31 -182 7 -36 15 -78 18 -95 2 -16 11 -64 20
-105 9 -41 18 -93 21 -115 3 -22 9 -56 15 -75 5 -19 10 -56 10 -82 0 -26 5
-50 10 -53 6 -3 10 -16 10 -29 0 -13 14 -77 31 -142 17 -65 32 -128 35 -139 2
-11 11 -49 20 -84 9 -36 17 -72 19 -80 2 -9 8 -36 15 -61 7 -25 14 -52 16 -60
23 -103 66 -219 123 -334 71 -143 158 -308 200 -381 13 -22 42 -74 64 -115
129 -239 306 -473 502 -664 158 -154 249 -226 347 -276 85 -42 191 -101 238
-130 8 -5 53 -33 100 -61 l85 -51 -60 5 c-33 4 -89 15 -124 27 -35 11 -88 20
-117 20 -46 0 -70 8 -168 59 -63 33 -198 116 -299 185 -102 69 -228 146 -281
171 -53 25 -96 50 -96 56 0 16 -63 49 -94 49 -16 0 -89 29 -162 65 -73 35
-168 78 -212 95 -55 21 -81 37 -85 50 -3 11 -13 23 -24 27 -21 8 -280 272
-345 353 -109 134 -279 379 -353 510 -58 102 -252 487 -290 573 -56 129 -177
482 -220 642 -15 55 -39 138 -52 185 -14 47 -28 99 -33 115 -10 38 -38 136
-56 195 -72 241 -143 498 -158 570 -19 86 -102 424 -153 615 -51 195 -86 397
-108 630 -3 33 -8 76 -10 95 -6 43 -42 459 -51 595 -18 266 -2 819 37 1195 12
128 46 370 69 505 10 61 21 126 24 145 20 133 116 548 156 675 6 17 22 71 36
120 40 137 99 312 168 500 35 94 103 278 151 410 48 131 98 264 112 295 78
171 135 281 261 501 77 134 155 273 173 309 19 36 72 121 119 188 47 68 90
131 95 140 6 9 15 21 20 27 6 7 30 36 55 65 25 29 52 61 61 69 8 9 42 48 75
88 229 276 301 359 390 447 55 56 122 119 149 141 27 22 62 52 77 68 16 15 32
27 37 27 5 0 37 25 72 56 61 56 63 56 70 33 4 -13 24 -95 45 -183z m-16 195
c0 -5 3 -24 6 -42 5 -23 3 -31 -3 -24 -15 14 -25 75 -13 75 6 0 10 -4 10 -9z
m7857 1 c12 -7 -14 -76 -86 -227 -16 -33 -43 -91 -61 -128 l-32 -68 -27 17
c-24 15 -39 29 -105 92 -31 30 -39 63 -26 112 14 50 65 99 170 160 83 49 136
62 167 42z m-4709 -212 c32 -20 37 -34 33 -105 -4 -71 -104 -181 -192 -210
-50 -17 -123 -14 -160 6 -12 6 -19 2 -27 -16 -16 -35 -70 -67 -93 -55 -13 8
-19 29 -24 87 -4 43 -12 86 -17 96 -7 15 -2 25 26 52 44 41 100 52 178 35 68
-16 88 -6 117 54 33 72 96 94 159 56z m-2554 -28 c6 -21 18 -80 17 -87 0 -2 4
-19 9 -36 8 -28 6 -35 -20 -59 -69 -65 -158 -83 -271 -55 -42 10 -85 14 -105
11 -29 -6 -34 -4 -39 16 -2 13 -12 54 -20 92 -10 47 -12 73 -5 80 18 18 126
19 200 1 71 -17 72 -17 98 4 38 30 103 60 118 54 7 -3 15 -12 18 -21z m80
-371 c9 -10 22 -46 28 -80 l12 -61 -35 -36 c-19 -20 -47 -43 -64 -51 -34 -18
-133 -20 -164 -4 -37 20 -97 13 -131 -15 -17 -15 -33 -24 -36 -21 -7 6 -32
101 -43 163 l-9 46 42 17 c65 28 143 34 205 16 52 -16 53 -16 68 5 29 41 98
53 127 21z m2531 -33 c2 -1 6 -48 10 -104 l7 -101 -54 -55 c-54 -56 -109 -90
-163 -102 -27 -6 -101 9 -146 28 -9 4 -22 1 -30 -7 -8 -8 -25 -20 -38 -26 -31
-17 -37 -7 -51 84 -6 38 -13 81 -16 95 -9 51 97 84 176 55 25 -9 52 -19 61
-21 22 -7 89 52 89 78 0 11 16 36 35 55 32 32 40 35 76 30 22 -3 42 -7 44 -9z
m-2414 -378 l27 -85 -21 -22 c-54 -59 -164 -81 -242 -49 -56 24 -73 20 -122
-25 -25 -23 -49 -37 -53 -33 -11 11 -60 163 -60 184 0 20 33 51 80 76 44 23
149 23 204 0 37 -16 40 -15 60 2 71 65 93 56 127 -48z m2446 -8 c10 -6 33
-132 33 -181 0 -10 -21 -39 -46 -65 -74 -75 -146 -96 -238 -69 -47 14 -49 14
-75 -10 -51 -49 -61 -42 -87 58 -32 122 -31 127 16 154 49 27 103 29 171 5
l52 -19 26 35 c66 89 110 116 148 92z m6143 -215 c0 -5 -4 -5 -10 -2 -5 3 -10
14 -10 23 0 15 2 15 10 2 5 -8 10 -19 10 -23z m-8524 5 c13 -8 44 -94 44 -121
0 -23 -55 -73 -110 -101 -45 -23 -122 -26 -182 -8 -34 10 -43 9 -79 -11 -23
-13 -44 -19 -49 -15 -10 10 -60 152 -60 169 0 7 22 24 49 38 53 30 125 35 193
17 34 -10 42 -8 75 15 37 24 95 33 119 17z m2468 -263 c6 -5 17 -38 27 -74
l17 -65 -39 -44 c-22 -25 -55 -50 -75 -56 -35 -12 -116 -6 -161 11 -20 7 -25
4 -38 -27 -17 -40 -38 -64 -57 -64 -9 0 -28 42 -52 116 l-37 117 23 24 c52 56
119 65 213 32 32 -12 36 -11 60 14 36 35 91 43 119 16z m-2317 -107 c14 -32
22 -65 19 -78 -3 -12 -29 -43 -57 -68 -43 -39 -55 -44 -80 -39 -25 5 -31 2
-36 -16 -8 -29 -45 -36 -125 -23 -51 9 -74 9 -93 0 -14 -6 -27 -9 -28 -7 -8
10 -67 165 -67 176 0 17 52 43 92 46 18 2 60 -3 93 -9 66 -14 74 -11 128 39
36 35 72 47 111 38 11 -2 28 -26 43 -59z m4593 -79 c53 -31 55 -100 5 -150
-32 -32 -34 -36 -20 -56 33 -47 14 -109 -45 -150 -21 -15 -25 -25 -25 -76 0
-49 -4 -64 -24 -85 -43 -46 -118 -51 -160 -11 -9 8 -29 25 -44 37 -22 19 -30
36 -39 90 -10 61 -9 73 12 130 27 75 52 116 111 182 85 96 165 127 229 89z
m-2120 -348 c-44 -54 -142 -68 -234 -36 l-54 19 -6 -24 c-7 -28 -40 -64 -58
-64 -7 0 -21 21 -31 48 -10 26 -25 59 -33 75 -8 15 -12 27 -9 27 4 0 -1 7 -10
16 -24 24 -15 53 28 87 49 40 127 47 208 19 l55 -20 39 36 38 35 40 -101 c34
-86 38 -104 27 -117z m-2351 99 c20 -52 31 -95 27 -109 -7 -28 -95 -109 -148
-136 -40 -20 -108 -25 -138 -9 -13 7 -24 5 -43 -10 -14 -11 -30 -20 -36 -20
-6 0 -29 36 -51 81 -46 91 -46 93 27 136 39 22 52 25 108 21 59 -5 65 -4 88
21 13 14 32 40 42 58 18 32 46 51 76 52 11 1 26 -26 48 -85z m8871 44 l23 -33
-31 29 c-34 31 -37 36 -24 36 5 0 19 -15 32 -32z m-5252 -3 c72 -17 134 -50
177 -95 16 -16 38 -30 48 -30 11 0 36 -17 56 -38 21 -23 71 -56 123 -80 101
-49 147 -97 172 -181 20 -67 20 -120 2 -190 -13 -52 -13 -53 8 -47 11 4 46 12
76 18 30 6 56 12 58 13 1 1 -5 18 -13 38 -32 76 -13 150 53 212 38 36 136 96
177 107 11 3 55 15 99 27 l79 22 60 -41 c34 -22 85 -48 114 -56 29 -8 53 -18
53 -21 0 -3 -6 -3 -14 0 -8 3 -17 0 -20 -8 -9 -25 -51 -45 -162 -75 -117 -33
-198 -63 -226 -84 -17 -12 -16 -17 12 -67 42 -76 41 -135 -2 -184 -45 -52 -92
-72 -183 -80 -94 -8 -104 -12 -174 -59 -69 -47 -119 -49 -161 -8 -53 54 -69
196 -36 328 25 101 17 116 -99 175 -50 25 -106 54 -125 63 -19 10 -57 42 -85
71 -69 73 -107 84 -223 62 -83 -17 -112 -32 -112 -63 0 -7 27 -13 78 -16 143
-10 268 -75 350 -183 116 -154 126 -222 66 -421 -20 -65 -47 -142 -60 -171
-26 -54 -126 -156 -179 -183 -17 -8 -49 -27 -72 -42 -23 -15 -45 -28 -48 -28
-4 0 -34 -16 -68 -36 -34 -20 -91 -52 -127 -72 -169 -91 -352 -211 -454 -296
-55 -47 -149 -166 -170 -217 -23 -55 -32 -165 -15 -195 15 -28 162 -104 202
-104 62 0 259 121 344 211 18 19 44 61 58 94 84 192 217 418 314 535 26 30 90
98 144 150 79 77 118 106 205 153 181 97 232 107 478 92 159 -9 233 3 264 42
34 43 35 68 5 125 -58 111 -26 182 112 248 217 104 333 124 439 76 83 -38 110
-61 172 -145 43 -58 59 -90 69 -136 31 -146 8 -240 -85 -352 -35 -41 -66 -90
-78 -123 -29 -82 -121 -170 -256 -243 -136 -73 -260 -165 -295 -218 -28 -42
-33 -67 -49 -236 -7 -71 -6 -72 41 -170 57 -115 97 -163 137 -163 39 0 152 43
199 76 23 16 52 42 65 59 34 45 84 247 84 341 0 41 7 102 16 137 9 34 21 82
27 106 5 24 35 78 65 119 30 42 71 107 91 145 44 85 103 139 205 190 113 57
158 39 204 -81 28 -73 97 -152 133 -152 42 0 86 33 147 110 74 94 85 103 152
131 49 20 73 23 215 23 157 1 161 0 214 -27 81 -43 144 -40 305 15 67 22 100
28 129 24 34 -6 39 -4 44 14 4 15 11 19 22 15 9 -4 28 -12 44 -17 31 -11 37
-29 7 -21 -44 12 -50 -5 -15 -40 45 -45 58 -98 45 -183 -14 -86 -72 -222 -113
-264 -40 -42 -164 -141 -231 -185 -83 -55 -97 -69 -106 -110 -8 -35 -4 -52 26
-128 20 -49 46 -112 60 -140 48 -105 22 -177 -94 -254 -12 -9 -51 -59 -87
-112 -39 -58 -83 -109 -110 -130 -54 -40 -62 -53 -75 -123 -16 -86 -62 -166
-150 -258 -104 -111 -123 -144 -153 -270 -22 -92 -24 -115 -16 -185 12 -113
22 -148 60 -207 19 -29 51 -88 71 -133 33 -71 38 -89 38 -157 0 -139 -58 -242
-194 -345 -33 -26 -115 -101 -181 -168 -66 -66 -151 -147 -187 -180 l-68 -60
2 -80 2 -80 53 -56 c52 -55 54 -56 136 -69 214 -33 433 37 524 167 55 79 56
82 116 255 54 155 67 226 83 438 6 82 12 122 33 205 5 22 12 54 14 70 9 60 67
262 93 325 61 150 94 203 184 292 72 71 96 89 142 103 97 31 152 -10 154 -113
0 -56 16 -92 111 -249 16 -28 57 -30 94 -5 41 27 96 77 113 105 28 41 30 140
7 244 -28 123 -46 447 -31 546 26 173 62 236 162 285 165 81 275 77 344 -13
21 -27 28 -52 35 -117 14 -125 43 -210 87 -260 27 -32 103 -14 135 32 7 11 40
48 73 82 115 123 142 159 165 220 26 70 111 168 145 168 11 0 36 -17 56 -37
l37 -38 -25 -55 c-13 -30 -32 -72 -42 -92 -22 -47 -335 -373 -387 -403 -52
-30 -118 -38 -175 -22 -67 18 -87 37 -119 113 -15 38 -35 85 -44 104 -9 19
-21 56 -29 83 -25 93 -114 143 -176 98 -25 -17 -37 -42 -66 -131 -23 -69 -38
-139 -42 -188 -6 -90 14 -230 45 -315 19 -50 21 -70 15 -155 -8 -119 -32 -195
-90 -285 -54 -83 -57 -86 -114 -118 -37 -20 -58 -24 -117 -24 -85 2 -109 12
-143 63 -13 20 -45 64 -71 98 -26 33 -49 70 -53 81 -11 34 -53 73 -79 73 -35
0 -69 -40 -91 -106 -11 -33 -34 -90 -51 -129 -37 -81 -110 -341 -124 -435 -5
-36 -9 -128 -9 -205 l1 -140 -52 -155 c-75 -221 -110 -287 -206 -385 -120
-123 -172 -165 -204 -165 -16 0 -56 -9 -89 -19 -93 -30 -217 -47 -244 -33 -13
6 -48 16 -78 22 -80 17 -149 51 -156 78 -4 15 -14 22 -29 22 -27 0 -130 110
-153 163 -19 42 -18 137 2 175 19 36 175 211 280 313 74 71 177 189 224 256
38 54 65 151 59 214 -5 58 -34 134 -71 184 -45 61 -53 101 -54 265 -1 85 3
175 9 200 23 107 121 310 190 395 27 33 53 65 57 70 4 6 41 60 81 120 40 61
97 135 126 165 76 81 141 168 164 223 24 55 27 135 8 175 -8 16 -12 55 -11 94
1 36 -2 85 -7 107 -7 31 -6 48 5 69 13 26 156 162 237 227 58 46 116 126 149
203 35 83 37 112 11 136 -28 26 -50 24 -204 -14 l-139 -33 -71 16 c-40 10 -77
17 -84 17 -7 0 -34 14 -60 30 -57 36 -95 38 -148 5 -22 -13 -53 -31 -68 -40
-16 -9 -56 -37 -89 -63 -33 -26 -70 -53 -81 -61 -44 -29 -87 -75 -87 -93 0
-27 -35 -40 -88 -32 -103 15 -210 87 -238 159 -30 79 -93 99 -132 41 -13 -19
-41 -53 -62 -77 -99 -110 -155 -282 -165 -504 -1 -33 -8 -73 -14 -89 -6 -16
-16 -49 -22 -75 -5 -25 -21 -60 -35 -78 -13 -17 -24 -36 -24 -41 0 -5 -35 -44
-78 -86 -100 -98 -170 -136 -266 -143 -67 -5 -77 -3 -149 30 -44 20 -77 42
-77 50 0 8 -7 20 -16 28 -18 15 -74 122 -74 142 0 7 -8 29 -19 49 -34 67 -56
187 -56 303 0 53 5 70 49 147 73 129 105 159 380 353 24 17 75 58 114 93 63
56 77 75 125 175 68 139 78 197 48 278 -25 66 -41 83 -97 99 -33 10 -54 9
-115 -4 -41 -9 -86 -18 -101 -20 -32 -5 -128 -55 -128 -67 0 -4 -3 -14 -6 -22
-3 -8 3 -22 13 -32 23 -23 22 -108 -1 -156 -9 -18 -40 -52 -68 -73 -54 -42
-177 -106 -218 -113 -14 -2 -110 -6 -215 -8 -209 -3 -255 -13 -392 -85 -63
-33 -160 -109 -177 -139 -5 -8 -18 -25 -29 -36 -10 -11 -28 -37 -38 -58 -34
-66 -91 -150 -139 -207 -60 -70 -101 -131 -134 -200 -25 -52 -80 -134 -156
-233 -73 -95 -247 -199 -397 -237 -54 -14 -156 10 -233 56 -113 66 -134 118
-107 268 23 130 33 156 107 271 65 101 111 153 164 181 16 9 57 37 90 64 84
65 184 128 296 187 161 85 223 125 267 170 23 24 46 43 51 43 41 0 179 219
196 311 12 70 9 165 -8 197 -9 18 -20 32 -24 32 -4 0 -39 20 -76 45 -38 25
-76 45 -85 45 -10 0 -23 6 -30 13 -8 8 -45 12 -109 12 -109 0 -155 -12 -292
-77 -210 -100 -209 -99 -328 -110 -167 -15 -265 0 -406 61 -61 27 -128 58
-149 70 -48 27 -143 102 -140 111 1 4 -4 30 -12 58 -8 34 -10 54 -3 58 5 4 38
3 71 0 63 -7 168 -53 233 -101 17 -13 59 -32 95 -44 71 -22 278 -61 326 -61
42 0 110 25 149 55 18 14 39 22 47 19 8 -3 42 16 78 43 35 26 76 56 92 66 22
14 27 25 27 60 1 159 75 229 287 271 91 18 107 18 181 1z m-600 -175 c41 -25
56 -58 48 -104 -8 -44 -41 -70 -114 -91 -31 -9 -68 -20 -82 -26 -44 -19 -252
-40 -285 -29 -36 12 -65 56 -65 99 0 25 5 32 28 37 15 3 34 8 42 11 8 2 68 15
132 28 104 22 161 43 178 67 7 9 51 27 70 27 8 1 30 -8 48 -19z m-2909 -139
c9 -5 28 -32 41 -60 20 -45 22 -55 12 -89 -26 -85 -140 -172 -226 -172 -26 0
-47 -7 -62 -21 l-22 -20 -50 90 -51 91 34 25 c18 15 58 30 91 37 33 6 64 12
71 14 7 2 22 22 33 44 28 55 87 83 129 61z m7206 -59 c-3 -3 -11 0 -18 7 -9
10 -8 11 6 5 10 -3 15 -9 12 -12z m-1696 -143 c157 -41 202 -57 124 -44 l-42
7 35 -83 c19 -46 34 -89 34 -96 0 -9 15 -13 43 -13 61 0 107 -15 162 -54 53
-38 61 -37 118 10 32 27 173 74 221 74 40 0 131 -27 281 -83 147 -54 369 -153
373 -166 10 -31 -105 -91 -175 -91 -52 0 -171 34 -228 65 -63 34 -134 59 -197
71 -43 7 -142 -20 -172 -48 -11 -10 -38 -28 -60 -39 -23 -12 -57 -30 -76 -40
-61 -33 -111 -20 -167 45 -47 53 -64 58 -161 51 -84 -6 -88 -6 -114 20 -28 26
-32 37 -29 88 0 15 -8 46 -18 70 -11 23 -26 58 -34 77 -8 20 -32 57 -55 82
-22 26 -43 56 -46 66 -7 20 8 72 21 72 4 0 77 -18 162 -41z m419 -131 c2 -9
-10 -31 -26 -48 -23 -26 -38 -33 -78 -37 -43 -5 -54 -2 -82 22 -35 29 -50 81
-33 113 11 20 11 20 113 -6 74 -20 104 -32 106 -44z m-5707 -64 c24 -36 48
-72 53 -78 13 -19 -19 -61 -77 -99 -68 -45 -106 -51 -179 -31 -52 15 -60 15
-76 2 -43 -39 -54 -33 -100 55 l-42 82 35 31 c49 44 135 57 215 34 32 -10 37
-8 61 19 21 22 53 47 65 51 1 0 21 -30 45 -66z m3581 -86 c-9 -9 -12 -7 -12
12 0 19 3 21 12 12 9 -9 9 -15 0 -24z m708 -93 c-21 -25 -32 -17 -13 9 10 13
20 20 21 15 2 -5 -2 -16 -8 -24z m-4161 -2 c10 -10 33 -44 50 -75 38 -69 35
-89 -20 -152 -54 -61 -126 -105 -195 -117 -33 -6 -67 -16 -77 -21 -11 -5 -20
-8 -21 -6 -1 2 -22 30 -46 63 -67 90 -72 101 -50 120 23 21 75 35 127 35 49 0
99 37 134 99 16 30 59 69 77 71 2 0 11 -8 21 -17z m10101 -253 c0 -5 -2 -10
-4 -10 -3 0 -8 5 -11 10 -3 6 -1 10 4 10 6 0 11 -4 11 -10z m-3011 -116 c34
-25 61 -51 61 -57 0 -7 -7 -25 -16 -42 -8 -16 -18 -48 -21 -69 -13 -94 -55
-167 -158 -276 -51 -54 -70 -84 -109 -175 -54 -129 -58 -144 -50 -208 l7 -48
21 21 c12 11 29 20 37 20 9 0 33 26 55 58 82 121 191 218 292 260 109 47 395
34 517 -22 63 -29 129 -93 178 -174 21 -34 50 -70 64 -79 25 -16 26 -16 49 10
l24 28 79 -64 80 -65 -34 -40 c-71 -82 -184 -105 -281 -57 -57 28 -96 67 -147
145 -20 30 -43 65 -52 77 -20 29 -81 49 -195 63 -99 12 -162 8 -217 -15 -46
-19 -137 -108 -186 -180 -22 -33 -51 -73 -65 -90 -55 -66 -73 -146 -75 -326 0
-45 4 -62 25 -90 14 -19 47 -75 73 -126 52 -101 61 -169 30 -217 -47 -72 -165
-44 -181 43 -6 35 -67 156 -106 213 l-19 28 -48 -24 c-26 -13 -71 -46 -100
-72 -78 -70 -187 -222 -212 -296 -28 -83 -57 -132 -125 -206 l-57 -62 1 -107
c1 -66 -4 -129 -13 -164 -8 -31 -15 -74 -15 -95 0 -22 -7 -61 -15 -88 -9 -30
-13 -68 -10 -95 15 -119 14 -126 -54 -371 -39 -139 -62 -186 -153 -312 -68
-96 -115 -141 -213 -209 -27 -19 -52 -37 -53 -42 -2 -4 -17 -14 -32 -22 -74
-38 -150 5 -150 86 0 37 6 48 44 85 25 23 71 60 103 82 61 41 98 82 172 189
34 49 54 96 89 210 l45 148 2 235 c1 232 1 236 28 290 23 48 26 62 21 125 -9
104 5 142 86 229 75 81 94 112 117 189 18 61 109 196 201 296 41 46 70 87 74
108 4 18 27 65 50 103 24 39 55 89 69 113 23 37 24 45 13 72 -17 42 -44 221
-44 291 1 60 12 97 70 239 45 108 71 148 150 230 82 85 95 109 109 204 12 78
27 107 63 128 35 19 41 17 107 -33z m176 -131 c22 -15 45 -32 50 -39 6 -6 45
-38 89 -70 l78 -58 -32 -29 c-25 -22 -40 -28 -69 -26 -27 2 -46 -3 -66 -19
-36 -28 -93 -29 -128 -2 -35 27 -44 80 -24 128 9 20 18 57 21 81 4 38 17 60
36 61 3 0 23 -12 45 -27z m-2586 -147 c15 -8 35 -29 44 -47 13 -29 13 -38 0
-83 -8 -28 -27 -80 -43 -116 -15 -36 -33 -92 -39 -125 -14 -74 -64 -211 -87
-236 -34 -38 -111 -43 -171 -11 -33 18 -71 69 -83 110 -20 72 -13 115 35 208
36 72 65 110 147 195 123 127 138 135 197 105z m-1938 -92 c31 -15 59 -66 59
-104 0 -14 -41 -62 -112 -133 -62 -62 -122 -124 -133 -138 -27 -34 -56 -49
-97 -49 -70 0 -110 60 -88 133 13 46 78 137 115 161 12 8 49 39 81 69 90 83
116 92 175 61z m8542 -111 c-16 -45 -239 -423 -250 -423 -7 0 -13 3 -13 7 0 4
40 68 89 142 77 119 114 180 160 269 14 26 23 29 14 5z m534 -948 c-6 -25 -14
-42 -19 -37 -7 7 16 82 26 82 2 0 -1 -20 -7 -45z m-13899 -1 c66 -29 77 -35
103 -58 34 -29 129 -224 129 -263 0 -17 9 -38 20 -48 19 -17 19 -18 1 -44 -67
-97 -326 -622 -346 -701 0 -3 -13 -43 -27 -90 -71 -224 -109 -376 -133 -525
-9 -55 -18 -111 -21 -125 -8 -38 -135 223 -158 327 -28 121 -33 144 -50 203
-8 30 -18 80 -21 110 -40 363 -44 471 -20 596 52 271 101 408 184 516 36 47
109 95 165 109 55 13 137 9 174 -7z m13672 -91 c0 -13 -91 -75 -98 -68 -2 2
15 26 39 54 41 48 58 52 59 14z m136 -215 c-78 -247 -185 -509 -238 -582 -16
-22 -62 -76 -102 -120 -40 -45 -84 -94 -98 -110 l-24 -28 -130 51 c-71 29
-142 58 -159 66 -16 7 -43 17 -58 21 -37 9 -33 24 38 169 87 177 219 317 385
407 181 99 278 154 317 180 39 26 78 46 95 47 3 1 -8 -45 -26 -101z m-14585
-2614 c44 -41 69 -99 69 -162 0 -78 -19 -185 -46 -261 -28 -78 -28 -75 -8 -95
19 -19 60 -21 71 -3 4 6 29 22 56 35 62 29 147 30 205 2 48 -23 59 -25 65 -7
3 6 6 -53 6 -133 1 -80 4 -155 7 -167 4 -13 -1 -28 -13 -40 -11 -11 -26 -28
-34 -40 -8 -11 -63 -61 -124 -112 -91 -76 -135 -104 -250 -160 -88 -43 -178
-78 -241 -95 -120 -31 -113 -31 -107 -7 8 32 -27 187 -74 331 -65 196 -73 244
-69 400 3 145 12 183 69 299 46 93 176 220 255 248 13 5 48 6 78 3 41 -5 61
-13 85 -36z m-2419 -1554 c40 -61 72 -123 83 -158 5 -18 0 -33 -25 -63 -17
-22 -38 -56 -47 -77 -8 -20 -24 -56 -34 -79 -28 -62 -37 -119 -49 -313 -6 -96
-13 -203 -16 -237 l-6 -63 -34 26 c-40 31 -105 157 -129 249 -47 177 8 496
111 650 58 87 97 134 105 126 3 -3 21 -31 41 -61z m8658 -245 c34 -12 130 -82
170 -125 7 -7 64 -55 125 -105 27 -22 79 -67 115 -99 36 -33 106 -90 155 -127
122 -91 204 -183 340 -379 32 -47 75 -105 95 -130 44 -55 69 -94 91 -140 9
-19 42 -88 73 -152 31 -65 56 -121 56 -125 0 -4 18 -44 40 -90 42 -85 104
-297 98 -336 -3 -20 -4 -21 -18 -4 -24 28 -34 42 -45 59 -24 38 -51 75 -72
101 -13 16 -21 33 -17 38 3 5 -14 48 -37 95 -28 58 -43 103 -46 138 -5 69 -21
84 -65 63 l-33 -16 -17 50 c-17 50 -32 73 -158 244 -36 50 -101 137 -144 195
-42 58 -95 130 -117 160 -44 59 -80 100 -174 195 -47 48 -83 72 -170 114 -60
29 -138 60 -171 68 -55 14 -67 14 -117 -1 -90 -26 -124 -91 -162 -311 -22
-127 -26 -681 -5 -810 7 -44 14 -89 16 -100 7 -49 33 -184 42 -220 23 -89 59
-211 70 -230 6 -11 29 -72 51 -135 40 -117 61 -171 71 -180 13 -11 149 -210
195 -285 27 -44 63 -98 81 -120 22 -27 30 -45 25 -54 -19 -30 -190 72 -266
157 -22 25 -57 61 -77 80 -21 20 -38 44 -38 54 0 11 -13 36 -28 56 -16 20 -43
71 -59 112 -17 41 -52 126 -78 189 -28 68 -45 123 -42 137 3 16 -4 33 -20 50
-13 15 -26 43 -29 63 -2 20 -6 43 -9 51 -2 8 -7 31 -10 50 -3 19 -8 42 -10 50
-3 8 -14 94 -25 190 -11 96 -22 184 -24 195 -10 53 -18 224 -19 393 0 214 2
277 14 347 5 28 16 95 25 150 18 116 97 405 122 449 8 13 181 0 232 -19z
m-8548 -72 c-44 -95 -53 -159 -104 -696 -3 -26 -4 -27 -24 -13 -19 13 -20 20
-12 83 4 37 17 161 28 275 17 187 22 215 51 280 33 77 78 152 87 143 3 -2 -9
-35 -26 -72z m92 -37 c18 -29 37 -63 41 -75 4 -13 17 -35 30 -49 42 -47 80
-96 97 -122 8 -14 43 -54 76 -90 50 -55 58 -69 50 -84 -6 -10 -15 -54 -19 -98
-13 -108 -41 -165 -99 -196 -41 -22 -53 -23 -150 -19 -179 9 -211 33 -191 147
5 30 13 93 16 140 14 197 46 394 72 452 14 32 30 55 34 52 5 -3 24 -29 43 -58z
m3151 -297 c17 -8 35 -21 42 -29 14 -20 192 -139 253 -170 25 -13 81 -54 125
-92 44 -38 90 -74 102 -81 12 -7 66 -39 120 -72 54 -33 102 -62 108 -64 5 -2
28 -18 50 -36 71 -56 146 -100 330 -195 184 -96 345 -195 556 -346 66 -46 155
-101 197 -122 42 -20 79 -40 82 -44 3 -4 28 -12 55 -18 28 -7 57 -13 65 -15
43 -11 82 -26 154 -61 78 -38 79 -38 55 -54 -80 -52 -135 -128 -212 -288 -64
-135 -70 -178 -30 -252 22 -41 41 -61 74 -78 42 -23 46 -23 94 -9 106 33 169
40 244 27 58 -10 75 -17 95 -41 27 -32 26 -43 -10 -97 -20 -29 -37 -106 -31
-142 1 -8 -21 -87 -50 -175 -29 -88 -71 -223 -93 -301 -37 -127 -75 -226 -153
-394 -14 -30 -37 -82 -52 -115 -14 -33 -43 -88 -63 -122 l-37 -61 -70 -4 c-60
-4 -73 -2 -92 15 -18 16 -27 18 -45 10 -17 -7 -41 -5 -93 9 -122 32 -138 36
-225 52 -47 9 -141 27 -210 40 -143 28 -243 44 -315 50 -95 9 -348 68 -595
140 -210 61 -261 75 -380 100 -321 69 -469 93 -659 106 -79 6 -154 12 -165 15
-12 2 -39 7 -61 10 -22 3 -65 10 -95 15 -117 20 -296 37 -414 39 -49 1 -93 4
-98 7 -7 4 -273 4 -478 0 -148 -3 -350 39 -350 74 0 4 -13 11 -30 15 -16 4
-30 10 -30 15 0 4 -33 24 -74 43 -78 39 -78 39 -111 147 -10 30 -35 90 -56
134 -66 132 -70 165 -72 576 -2 349 -1 367 18 399 23 39 36 48 88 56 29 5 37
10 37 27 0 20 4 20 78 14 42 -4 93 -11 112 -16 19 -5 87 -23 150 -39 116 -31
497 -89 580 -90 102 0 336 -28 505 -61 55 -11 133 -22 174 -25 81 -6 103 -8
266 -30 61 -8 144 -17 185 -20 146 -11 292 -28 455 -52 94 -14 127 -24 225
-70 187 -88 206 -99 415 -239 256 -170 417 -254 489 -254 28 0 83 -9 121 -19
39 -11 95 -22 125 -26 55 -7 167 8 182 23 5 5 -2 36 -15 71 -24 64 -26 66
-127 123 -25 14 -83 49 -130 77 -47 29 -132 75 -190 103 -58 27 -107 53 -110
57 -3 4 -15 14 -27 22 -94 64 -378 354 -484 494 -60 80 -132 190 -178 272 -21
38 -61 110 -90 162 -29 52 -70 127 -91 165 -20 39 -62 118 -93 176 -31 58 -69
139 -86 181 -41 101 -84 274 -82 327 1 23 -6 58 -14 78 -27 65 -19 67 58 15
39 -27 86 -55 102 -62z m5455 -35 c40 -19 83 -40 97 -45 38 -14 113 -76 161
-133 124 -147 215 -266 274 -358 33 -52 134 -186 148 -198 4 -3 20 -25 37 -50
36 -53 66 -122 88 -205 15 -56 15 -65 0 -125 -14 -57 -25 -109 -49 -235 -21
-111 -28 -170 -28 -242 l1 -82 -57 -16 c-176 -51 -331 -180 -416 -346 -25 -50
-46 -97 -46 -105 0 -20 -21 -13 -34 12 -14 24 -59 96 -128 204 -98 152 -105
165 -136 255 -16 50 -41 119 -55 155 -52 129 -103 359 -131 588 -8 60 -8 438
-1 552 13 195 46 356 84 398 19 22 27 24 71 18 27 -4 81 -22 120 -42z m2994
-32 c8 -15 17 -45 20 -67 4 -22 13 -62 21 -89 8 -27 15 -70 15 -95 0 -25 5
-63 11 -84 5 -21 12 -54 15 -75 14 -120 22 -216 19 -234 -3 -12 -5 -134 -6
-272 -2 -259 -7 -342 -39 -606 -41 -346 -134 -598 -273 -740 -19 -19 -72 -71
-119 -115 -46 -44 -117 -111 -157 -148 -43 -41 -79 -67 -89 -65 -22 4 -28 82
-11 161 9 44 9 61 0 70 -6 6 -11 15 -11 19 0 5 34 45 75 89 77 82 121 156 155
257 53 161 101 277 162 397 48 93 56 126 64 255 4 52 15 121 25 152 35 112
109 597 109 717 0 95 -19 177 -47 203 -21 19 -35 23 -86 22 -70 -1 -109 -17
-177 -74 -25 -20 -56 -43 -69 -50 -14 -7 -41 -28 -60 -46 -45 -41 -108 -88
-191 -144 -135 -90 -298 -219 -384 -305 -61 -61 -85 -91 -147 -185 -145 -219
-223 -359 -270 -480 -19 -49 -11 -47 -121 -34 -56 6 -58 7 -52 33 24 112 139
327 259 486 132 175 386 444 565 600 30 26 69 59 85 74 33 29 221 161 229 161
3 0 27 13 53 28 26 15 80 42 119 60 39 18 120 59 180 92 60 33 110 60 111 60
1 0 9 -12 17 -28z m-3630 -174 c-6 -60 -6 -380 -1 -493 2 -27 -1 -30 -25 -27
-29 4 -98 -24 -98 -39 0 -5 -6 -9 -14 -9 -8 0 -21 -8 -28 -19 -7 -10 -58 -65
-113 -123 -83 -88 -108 -122 -148 -203 l-48 -97 -33 69 c-37 77 -85 137 -126
158 l-27 14 20 63 c34 111 100 271 139 340 22 36 65 93 96 125 79 79 243 209
317 250 33 19 67 41 75 49 8 8 16 14 18 14 2 0 0 -33 -4 -72z m3514 -200 c15
-51 14 -128 -3 -245 -9 -59 -18 -126 -20 -148 -9 -96 -51 -319 -76 -395 -11
-36 -24 -116 -29 -179 -9 -105 -13 -122 -51 -200 -56 -114 -95 -208 -130 -311
-16 -47 -34 -94 -39 -105 -5 -11 -19 -44 -30 -74 -32 -84 -169 -246 -190 -225
-5 5 -29 55 -54 110 -51 112 -93 191 -106 199 -5 3 1 31 14 63 13 31 31 82 40
112 10 30 30 98 47 150 23 77 29 114 30 195 0 106 -14 196 -37 232 -11 18 -18
52 -23 115 -1 4 -17 7 -36 6 -31 -1 -37 -6 -60 -52 -14 -27 -25 -55 -25 -60 0
-13 -65 -54 -141 -90 -82 -38 -174 -100 -236 -158 l-54 -52 29 62 c16 34 48
90 71 125 22 35 41 66 41 70 0 7 98 148 152 219 67 87 287 271 478 398 36 23
97 69 137 101 39 33 75 59 79 59 4 0 27 18 51 41 49 45 94 68 135 69 21 0 28
-6 36 -32z m-3498 -475 c17 -134 18 -143 25 -223 3 -41 10 -97 15 -125 5 -27
17 -86 25 -129 8 -44 13 -81 11 -83 -2 -2 -112 -7 -245 -10 l-241 -6 -25 57
c-30 68 -31 92 -5 99 14 3 33 34 61 94 52 115 74 145 172 241 142 139 175 168
193 172 1 0 7 -39 14 -87z m-1099 -38 c106 -18 185 -44 302 -99 139 -65 172
-106 234 -295 18 -57 42 -116 52 -130 9 -14 24 -41 31 -60 8 -19 24 -45 37
-59 36 -39 149 -214 156 -242 4 -14 33 -59 64 -100 31 -41 71 -96 87 -121 34
-51 148 -152 183 -163 27 -9 84 -85 107 -145 16 -41 16 -45 0 -62 -9 -11 -23
-19 -31 -19 -8 0 -11 -5 -8 -11 8 -12 -115 -7 -135 6 -33 20 -162 116 -226
167 -49 39 -89 83 -127 140 -31 46 -77 106 -104 134 -26 29 -75 81 -108 116
-33 35 -74 80 -92 100 -17 20 -51 49 -74 64 -24 15 -50 33 -57 41 -19 19 -47
32 -99 48 -43 13 -49 13 -82 -6 -21 -12 -68 -63 -110 -119 -40 -54 -109 -138
-153 -187 -44 -48 -117 -137 -162 -198 -95 -125 -125 -155 -179 -180 -21 -10
-42 -26 -48 -37 -6 -11 -31 -33 -57 -49 -36 -23 -57 -29 -100 -29 -46 0 -58 4
-83 29 -36 36 -37 63 -4 141 14 33 25 65 25 71 0 18 257 379 327 459 80 91
156 170 164 170 16 0 136 86 188 134 85 81 112 154 71 191 -19 17 -25 17 -70
6 -53 -14 -68 -16 -175 -27 -38 -4 -74 -8 -80 -9 -101 -11 -209 -51 -317 -117
-46 -28 -108 -65 -138 -81 -30 -17 -64 -38 -75 -48 -11 -9 -47 -33 -81 -53
-33 -19 -83 -53 -110 -75 -27 -23 -54 -41 -61 -41 -8 0 -46 -24 -85 -52 -82
-60 -311 -178 -345 -178 -23 0 -63 46 -63 74 0 69 123 289 199 357 30 27 61
49 68 49 10 0 64 31 98 57 21 17 125 83 129 83 2 0 62 37 133 81 212 135 336
194 503 240 90 25 110 29 175 35 39 4 72 8 74 10 10 9 156 3 232 -11z m2672
-245 c19 -75 49 -122 187 -292 62 -76 74 -97 122 -223 32 -85 34 -94 27 -165
-4 -41 -8 -84 -8 -94 -1 -11 -4 -17 -7 -13 -4 3 -21 -5 -38 -18 -29 -22 -38
-24 -106 -18 -134 11 -227 67 -273 166 -38 79 -52 246 -31 362 7 39 18 104 24
145 6 41 18 99 26 128 36 127 49 131 77 22z m-10270 -47 c23 -107 27 -130 27
-193 2 -186 -22 -985 -35 -1140 -8 -102 -17 -255 -20 -340 -3 -85 -10 -227
-16 -316 -8 -118 -7 -182 1 -240 6 -43 16 -110 21 -149 5 -38 19 -112 30 -163
12 -51 19 -95 17 -97 -3 -3 -27 23 -53 57 -27 35 -60 77 -75 93 -58 64 -112
203 -134 345 -18 111 -48 538 -52 740 -3 129 -10 282 -15 340 -6 58 -13 220
-16 360 -5 215 -3 268 11 340 28 139 90 345 112 371 8 8 14 21 14 27 0 16 20
26 70 33 99 14 93 18 113 -68z m113 69 c6 -4 17 -83 25 -177 15 -189 15 -784
-1 -863 -5 -26 -16 -182 -25 -347 -8 -165 -17 -336 -21 -380 -3 -44 -7 -114
-8 -155 -2 -41 -6 -139 -11 -217 -11 -194 20 -462 70 -600 20 -57 21 -63 6
-63 -21 0 -50 80 -80 220 -52 241 -56 375 -26 905 20 371 31 630 44 1078 9
295 8 364 -4 447 -8 54 -19 110 -25 125 -5 14 -10 28 -10 31 0 7 54 4 66 -4z
m204 -35 c56 -13 123 -21 195 -22 61 -2 113 -3 117 -4 4 0 0 -17 -8 -36 -30
-72 -61 -736 -43 -918 13 -131 37 -285 49 -307 6 -10 -14 -5 -58 17 -72 35
-77 36 -135 34 -31 -1 -48 -10 -92 -52 -65 -61 -79 -111 -51 -184 43 -111 265
-244 414 -248 7 0 11 -3 10 -6 -2 -3 -16 -30 -31 -59 -30 -58 -28 -57 -83 -10
-18 16 -23 16 -40 4 -18 -14 -18 -15 6 -34 65 -51 75 -62 64 -69 -6 -5 -15
-19 -19 -31 -7 -24 -20 -25 -69 -6 -28 11 -18 -20 15 -47 29 -23 31 -30 25
-62 -7 -40 -12 -42 -49 -28 -20 8 -29 6 -43 -10 -20 -22 -21 -21 31 -41 36
-14 40 -19 43 -55 l3 -39 -36 4 c-44 5 -45 -10 -2 -35 37 -22 36 -11 17 -205
-9 -92 -35 -181 -63 -214 -59 -72 -110 -96 -213 -102 l-82 -4 -21 56 c-58 156
-91 464 -73 675 14 157 31 447 43 741 5 124 14 243 20 265 6 22 13 169 16 335
4 266 0 383 -24 673 l-5 58 44 -7 c23 -3 81 -15 128 -27z m409 -43 c2 -2 -3
-14 -11 -26 -25 -38 -38 -172 -37 -373 0 -104 -4 -221 -9 -260 -18 -131 -15
-295 7 -376 11 -41 23 -90 26 -108 8 -49 42 -139 62 -170 38 -57 53 -92 63
-153 14 -90 12 -100 -11 -44 -26 65 -99 176 -132 200 -14 11 -24 23 -21 28 3
4 -2 20 -9 35 -19 37 -34 127 -49 295 -9 108 -9 208 0 470 12 327 20 415 43
471 10 25 15 27 43 21 17 -3 33 -8 35 -10z m154 -38 c15 -2 73 -19 129 -37 57
-17 116 -32 131 -31 26 1 27 -1 15 -16 -38 -49 -40 -62 -40 -261 1 -108 1
-252 1 -321 -1 -208 0 -232 17 -320 9 -53 30 -116 55 -167 22 -45 48 -108 59
-141 44 -132 55 -151 112 -176 l51 -23 -34 -7 c-74 -15 -356 -19 -403 -6 -50
14 -50 14 -61 113 -4 36 -18 79 -37 115 -74 136 -70 125 -120 357 -6 31 -8 98
-4 175 4 69 11 242 16 385 4 143 11 272 14 287 11 48 26 79 35 73 5 -3 12 -1
16 5 4 6 10 8 14 6 4 -3 19 -7 34 -10z m10622 -56 c16 -85 6 -238 -20 -310 -7
-19 -23 -69 -35 -110 -50 -170 -77 -220 -153 -285 -42 -37 -131 -75 -174 -75
-74 0 -243 122 -243 176 0 23 15 73 36 121 8 17 14 34 14 39 0 13 105 148 161
205 68 70 123 107 249 169 55 28 112 63 126 80 15 16 29 29 30 27 2 -1 6 -18
9 -37z m-4082 -58 c-26 -26 -88 -72 -136 -102 -91 -56 -92 -57 -273 -282 -34
-42 -86 -112 -115 -155 -29 -43 -67 -96 -85 -118 -39 -49 -74 -117 -74 -144 0
-11 -4 -22 -8 -25 -11 -6 -168 149 -197 194 -12 19 -32 44 -44 54 -11 11 -21
25 -21 33 0 15 -58 43 -90 43 -25 0 -26 17 -2 24 9 3 65 44 122 91 63 51 139
102 190 127 47 23 111 59 143 81 32 21 71 43 87 49 17 5 30 14 30 18 0 12 118
77 182 102 49 18 179 44 263 51 22 2 48 4 58 5 12 1 3 -13 -30 -46z m1392
-183 c11 -17 -1 -21 -15 -4 -8 9 -8 15 -2 15 6 0 14 -5 17 -11z m2001 -162
l32 -12 -29 -75 c-52 -134 -33 -206 79 -290 64 -49 82 -58 145 -77 80 -24 134
-20 211 16 37 17 70 31 73 31 3 0 12 8 19 18 11 16 13 15 23 -12 14 -36 6
-119 -15 -154 -14 -24 -94 -72 -120 -72 -5 0 -40 10 -79 22 -53 18 -82 34
-119 71 -55 52 -61 54 -94 31 -18 -12 -22 -25 -22 -68 0 -58 -31 -159 -58
-189 -27 -31 -80 -49 -121 -42 -104 17 -259 196 -271 309 -4 41 -9 52 -25 54
-13 1 -27 -8 -38 -25 -35 -52 -65 -66 -139 -67 -66 -1 -69 0 -108 39 -51 51
-80 132 -79 217 1 35 4 74 8 87 6 23 7 23 36 -15 69 -92 175 -152 288 -160 29
-2 67 -7 86 -10 27 -4 50 2 103 28 37 18 68 38 68 45 0 6 6 13 13 15 9 4 12
43 12 151 l0 147 45 -1 c25 0 59 -6 76 -12z m-2966 -34 c100 -70 320 -304 409
-436 27 -40 65 -86 84 -103 81 -69 123 -101 227 -172 14 -9 33 -24 43 -33 10
-9 33 -20 50 -24 l32 -7 -45 -9 c-59 -12 -131 7 -252 65 -76 36 -114 48 -208
62 -138 21 -199 23 -266 9 -59 -13 -146 -61 -190 -104 -31 -31 -33 -31 -85
-21 -30 6 -63 15 -74 20 -11 5 -47 14 -80 20 -33 6 -78 15 -100 20 -44 10
-176 22 -244 22 l-43 1 28 23 c16 13 50 38 76 56 33 22 48 40 48 55 0 12 17
39 37 60 20 21 64 72 97 113 33 41 85 102 117 135 32 33 72 78 89 100 168 213
162 209 250 148z m2176 -60 c-47 -86 -53 -213 -15 -322 33 -96 107 -184 168
-201 53 -15 137 -12 178 5 47 20 46 20 68 -22 20 -38 113 -153 150 -186 38
-34 139 -77 181 -77 55 0 122 25 157 58 25 24 79 113 76 127 0 3 2 19 6 35 7
32 15 36 43 20 43 -24 148 -60 177 -60 116 0 240 94 247 189 2 31 18 57 18 30
0 -7 7 -20 16 -30 8 -9 16 -23 18 -31 1 -7 12 -30 24 -49 12 -20 22 -41 22
-48 0 -6 4 -11 10 -11 9 0 30 -63 34 -108 2 -13 -1 -43 -5 -66 -5 -22 -20
-106 -35 -186 -28 -162 -62 -244 -126 -308 -20 -20 -40 -47 -43 -60 -9 -35 11
-93 46 -132 107 -122 149 -196 176 -310 23 -99 24 -287 1 -395 -10 -44 -20
-96 -23 -115 -3 -19 -11 -55 -16 -80 -6 -25 -12 -53 -14 -62 -26 -125 -62
-198 -98 -198 -30 -1 -93 -30 -163 -78 -32 -22 -74 -47 -93 -57 l-33 -17 32
59 c59 106 81 154 106 236 13 45 40 132 59 192 41 134 48 190 47 420 0 149 -8
244 -27 320 -16 68 -87 154 -150 184 -98 46 -252 11 -404 -92 l-43 -29 -73 73
c-41 40 -88 81 -107 91 -45 24 -140 23 -196 -2 -52 -24 -130 -103 -160 -164
-47 -93 -66 -311 -36 -413 7 -22 15 -57 18 -77 15 -91 39 -171 81 -261 7 -16
30 -70 50 -120 38 -94 108 -230 131 -253 8 -7 14 -17 14 -20 0 -4 10 -18 23
-32 12 -14 35 -44 50 -68 15 -24 44 -61 64 -82 19 -22 31 -40 26 -40 -6 0 -42
13 -80 29 -39 16 -86 32 -104 36 -75 16 -126 51 -230 156 -121 122 -127 131
-210 297 -88 177 -89 185 -95 557 -7 412 -18 501 -74 611 -40 76 -63 109 -163
228 -48 56 -79 145 -102 289 -17 109 -14 241 6 262 5 5 9 18 9 29 0 35 70 144
131 205 42 41 90 74 151 105 108 55 126 58 104 19z m-986 -251 c6 -2 10 -9 10
-15 0 -6 17 -28 37 -49 l37 -38 -36 0 c-84 0 -120 47 -117 150 l2 61 29 -53
c16 -29 33 -54 38 -56z m-2416 -176 c83 -76 86 -80 86 -122 0 -33 -11 -65 -46
-129 -41 -76 -45 -89 -39 -127 4 -24 8 -55 11 -70 3 -27 -9 -66 -81 -250 -32
-82 -41 -97 -59 -95 -17 2 -28 -12 -55 -68 -68 -142 -108 -275 -83 -275 4 0
16 6 27 14 20 13 20 12 13 -68 -10 -122 -51 -282 -78 -311 -13 -14 -29 -25
-36 -25 -7 0 -24 -14 -37 -31 -23 -30 -26 -31 -58 -20 -55 19 -269 59 -289 54
-13 -3 -2 49 15 67 10 11 15 20 11 20 -4 0 1 12 12 28 10 15 29 54 42 87 13
33 49 112 80 176 32 64 61 127 65 140 4 13 19 51 34 84 107 236 135 310 195
526 57 206 80 272 106 308 11 16 20 44 20 63 0 18 7 54 17 80 12 35 19 43 28
35 7 -7 51 -47 99 -91z m5556 -229 c14 -12 49 -39 77 -60 45 -33 51 -41 43
-58 -11 -20 -60 -49 -82 -49 -7 0 -31 -18 -53 -41 -55 -57 -88 -71 -174 -77
-69 -4 -78 -8 -113 -40 -21 -19 -46 -40 -55 -47 -36 -23 -142 -57 -162 -50
-18 5 -19 12 -14 58 9 76 19 97 46 97 67 0 122 29 195 104 45 46 84 77 102 81
17 4 40 20 53 36 19 24 88 69 107 69 3 0 16 -10 30 -23z m-11670 -39 c67 -23
169 -127 211 -217 17 -35 29 -65 27 -67 -2 -1 -41 33 -87 77 -46 43 -88 79
-93 79 -6 0 -28 20 -50 45 -39 44 -72 57 -81 33 -6 -19 17 -59 52 -91 17 -15
31 -33 31 -41 0 -7 23 -34 51 -60 28 -26 49 -49 46 -52 -6 -7 -116 47 -146 71
-112 92 -130 147 -66 204 39 34 55 37 105 19z m7583 -105 c-7 -2 -19 -2 -25 0
-7 3 -2 5 12 5 14 0 19 -2 13 -5z m1504 -95 c7 -16 11 -28 9 -28 -8 0 -36 58
-35 72 0 9 2 8 6 -2 3 -8 12 -27 20 -42z m2823 25 c0 -5 34 -44 75 -87 59 -63
72 -83 65 -96 -11 -20 -49 -36 -105 -44 -26 -3 -45 -13 -55 -27 -60 -88 -116
-113 -240 -110 -130 3 -187 -7 -223 -41 -66 -61 -115 -98 -143 -108 -19 -7
-34 -22 -41 -40 -6 -17 -16 -30 -21 -30 -16 0 -114 71 -140 101 -13 16 -27 27
-32 24 -4 -3 -3 11 3 31 23 74 147 169 318 244 68 31 84 34 204 38 113 4 132
7 143 24 21 29 155 128 175 128 9 0 17 -3 17 -7z m-11550 -331 c-25 -83 -71
-152 -102 -152 -9 0 -21 -6 -27 -14 -9 -11 -17 -11 -35 -3 -23 11 -23 12 -8
45 13 27 20 32 39 27 30 -7 43 21 18 39 -22 16 -14 46 12 46 10 0 34 14 53 29
41 34 63 27 50 -17z m11861 -39 c84 -113 85 -114 63 -130 -10 -8 -31 -17 -46
-20 -14 -3 -46 -23 -70 -44 -53 -48 -88 -58 -171 -52 -73 6 -117 -1 -117 -20
0 -6 -16 -33 -34 -58 -61 -83 -164 -111 -274 -75 -68 23 -87 16 -102 -40 -7
-24 -16 -47 -20 -49 -4 -3 -23 19 -42 48 -19 28 -51 72 -71 95 -39 46 -39 60
0 93 74 63 158 85 242 62 92 -25 101 -26 101 -12 0 33 42 97 78 116 60 34 157
55 217 48 46 -6 56 -4 75 15 18 18 114 70 130 70 3 0 22 -21 41 -47z m-2146
-146 c32 -19 165 -164 165 -180 0 -8 8 -25 18 -37 17 -21 21 -22 47 -9 21 10
33 26 40 52 13 45 64 81 180 128 77 30 122 32 173 5 30 -16 74 -61 90 -91 24
-48 34 -171 29 -339 -7 -194 -18 -285 -45 -371 -11 -33 -29 -96 -42 -140 -12
-44 -33 -104 -46 -133 -13 -29 -24 -54 -24 -57 0 -4 -94 -157 -115 -189 -8
-11 -15 -28 -15 -38 0 -10 -6 -18 -12 -19 -7 0 -22 -2 -33 -4 -11 -3 -54 -7
-96 -11 l-75 -7 -28 34 c-16 19 -45 53 -66 75 -70 75 -206 288 -243 381 -19
48 -46 113 -60 143 -50 110 -103 305 -114 418 -3 34 0 104 7 155 15 103 37
148 103 210 36 33 46 37 91 37 28 -1 60 -6 71 -13z m-9880 -17 c3 -5 -3 -10
-14 -10 -12 0 -21 5 -21 10 0 6 6 10 14 10 8 0 18 -4 21 -10z m8715 -135 c19
-3 63 -16 97 -27 l62 -22 55 27 c45 22 68 27 133 27 44 0 83 -4 89 -9 5 -6 8
-53 6 -107 l-3 -96 -60 6 c-52 6 -64 4 -101 -18 -63 -37 -128 -41 -212 -13
l-70 22 -43 -21 c-34 -18 -60 -22 -127 -22 -59 0 -93 -5 -116 -17 -51 -26 -82
-28 -132 -6 -46 20 -51 27 -62 91 -3 19 -8 46 -11 60 -20 97 -20 100 11 100
15 0 45 -12 65 -26 36 -25 38 -25 70 -9 26 14 49 16 116 11 76 -5 83 -4 94 15
12 23 66 50 89 44 8 -2 31 -6 50 -10z m3511 -65 c10 0 28 -31 52 -93 20 -51
37 -96 37 -101 0 -5 -30 -6 -67 -3 -60 5 -76 2 -135 -24 -53 -23 -81 -29 -138
-29 -66 0 -74 -2 -93 -26 -28 -36 -76 -54 -142 -54 -36 0 -68 -7 -92 -20 -27
-14 -57 -20 -105 -20 -66 0 -67 0 -99 -41 l-32 -40 -27 64 c-15 36 -37 79 -49
95 -27 38 -27 43 7 74 43 40 66 48 141 48 53 0 79 5 103 20 21 13 51 20 81 20
43 0 55 5 93 39 50 44 80 51 176 44 52 -5 73 -2 93 11 31 20 133 46 160 41 11
-3 27 -5 36 -5z m-4097 -90 c4 -25 3 -31 -4 -20 -5 8 -10 26 -10 39 0 32 6 24
14 -19z m757 -236 l26 -25 50 20 c42 16 117 25 183 22 8 -1 15 -11 16 -23 0
-13 3 -58 7 -100 l6 -78 -55 0 c-40 0 -75 -9 -127 -31 -85 -37 -133 -39 -181
-11 l-36 21 -63 -30 c-109 -50 -183 -41 -247 32 l-25 29 -45 -21 c-25 -11 -56
-31 -70 -43 -14 -13 -35 -26 -47 -29 -23 -5 -23 -4 -23 112 l0 117 38 18 c55
27 122 46 162 46 39 0 108 -33 128 -61 7 -11 19 -19 25 -19 7 0 53 21 102 46
100 51 130 52 176 8z m3527 -178 c12 -57 22 -106 22 -109 0 -3 -11 -4 -24 -1
-91 16 -141 11 -211 -23 -78 -37 -136 -42 -205 -18 -23 8 -43 15 -45 15 -1 0
-24 -22 -51 -49 -57 -57 -109 -75 -182 -65 -42 5 -54 2 -97 -25 -27 -17 -61
-31 -75 -31 -22 0 -27 6 -39 48 -7 26 -18 66 -25 90 -7 23 -10 42 -6 42 5 0
27 16 50 35 50 42 107 59 173 51 48 -6 51 -5 98 39 79 74 136 89 219 60 59
-21 80 -19 136 12 53 30 109 40 190 35 l51 -4 21 -102z m-4711 38 c-3 -3 -12
-4 -19 -1 -8 3 -5 6 6 6 11 1 17 -2 13 -5z m-74 -11 c-7 -2 -21 -2 -30 0 -10
3 -4 5 12 5 17 0 24 -2 18 -5z m-365 -20 c-21 -2 -57 -2 -80 0 -24 2 -7 4 37
4 44 0 63 -2 43 -4z m69 1 c-3 -3 -12 -4 -19 -1 -8 3 -5 6 6 6 11 1 17 -2 13
-5z m1534 -240 l53 -35 36 19 c69 38 171 50 232 27 19 -7 26 -35 23 -85 -1
-19 -3 -62 -5 -95 -1 -33 -5 -51 -7 -39 -3 18 -12 21 -64 22 -50 1 -69 -4
-123 -32 -58 -31 -68 -33 -111 -25 -26 5 -68 22 -93 37 l-46 28 -41 -42 c-34
-35 -51 -44 -112 -58 -109 -24 -151 -21 -206 15 -25 16 -49 39 -52 50 -8 25
-21 24 -40 -4 -14 -21 -63 -52 -70 -45 -2 2 1 57 7 123 12 139 16 145 96 145
63 0 112 -21 146 -61 36 -43 64 -38 114 21 47 54 78 68 158 69 44 1 60 -5 105
-35z m3479 -116 c51 -23 70 -27 90 -19 60 22 56 26 84 -78 14 -54 26 -102 26
-108 0 -17 -97 -36 -143 -29 -22 4 -71 20 -108 35 l-67 28 -42 -28 c-50 -33
-97 -44 -148 -34 -20 4 -49 9 -64 12 -19 4 -28 0 -32 -14 -8 -23 -63 -61 -116
-79 -31 -11 -66 -13 -135 -8 -102 7 -99 5 -110 74 -3 19 -11 54 -17 78 -6 23
-8 45 -5 49 3 3 50 5 104 4 l99 -2 22 39 c41 74 79 86 207 66 l86 -14 34 26
c67 50 126 51 235 2z m-3153 -180 c-3 -8 -6 -5 -6 6 -1 11 2 17 5 13 3 -3 4
-12 1 -19z m-108 -179 c34 -16 67 -26 72 -23 12 7 11 -21 -2 -128 -14 -103
-13 -103 -113 -53 -62 30 -71 32 -90 20 -65 -43 -178 -59 -249 -36 -32 11 -40
10 -74 -12 -94 -59 -207 -65 -304 -16 -36 18 -36 18 -70 -7 -34 -25 -93 -54
-111 -54 -5 0 -7 8 -5 18 3 9 15 67 28 129 21 106 24 112 51 124 46 19 112 13
174 -15 71 -32 98 -33 130 -1 56 56 122 69 204 40 59 -21 84 -19 117 9 64 53
135 55 242 5z m3210 3 c62 -24 67 -25 125 -11 58 13 142 17 152 7 7 -8 31
-108 37 -159 6 -42 4 -47 -14 -52 -12 -3 -33 -1 -47 4 -17 6 -43 6 -79 -1 -82
-17 -152 -14 -218 11 -56 21 -60 21 -70 4 -5 -10 -23 -33 -39 -52 -50 -59
-185 -80 -272 -43 -30 13 -36 11 -94 -24 -35 -20 -70 -36 -79 -34 -11 2 -21
29 -34 92 -21 103 -19 109 68 151 61 30 151 35 207 11 46 -20 57 -15 86 34 57
99 132 117 271 62z m-3282 -353 c23 -11 57 -38 74 -60 30 -38 31 -44 25 -97
-8 -69 -30 -92 -88 -92 -30 0 -46 7 -68 28 l-28 28 -33 -27 c-50 -42 -97 -45
-214 -15 -55 13 -119 28 -141 31 -40 6 -43 4 -75 -35 -51 -63 -89 -82 -166
-82 -57 0 -70 3 -111 32 l-46 32 -17 -21 c-22 -27 -100 -58 -85 -33 3 5 7 19
10 33 3 13 18 69 33 124 l28 100 35 3 c48 5 102 -13 130 -43 l23 -25 24 35
c36 53 94 79 183 81 72 3 99 -1 219 -32 51 -13 55 -12 85 11 65 50 133 58 203
24z m3627 -32 c11 -8 22 -39 31 -89 7 -42 16 -90 20 -107 6 -29 5 -31 -25 -31
-17 0 -47 7 -67 15 -45 19 -96 19 -131 1 -15 -8 -53 -21 -83 -29 -49 -12 -61
-12 -99 0 -41 14 -43 14 -69 -11 -57 -54 -118 -59 -209 -16 -77 36 -96 37
-133 5 -30 -25 -88 -41 -113 -32 -8 3 -20 38 -29 88 l-15 82 27 24 c14 13 48
35 76 49 41 22 58 26 105 21 31 -2 80 -15 109 -27 l52 -23 15 22 c18 26 57 46
104 55 25 4 49 -1 85 -18 l50 -23 45 20 c72 31 224 46 254 24z m93 -427 c19
-132 25 -120 -79 -169 -88 -42 -94 -43 -162 -38 -39 3 -95 14 -125 26 l-54 20
-26 -28 c-14 -15 -41 -35 -58 -45 -45 -23 -187 -55 -223 -51 -45 6 -97 34
-125 67 -22 26 -30 29 -60 24 -25 -5 -35 -3 -36 6 0 7 -4 52 -7 100 -8 99 -11
94 72 104 64 8 113 -12 155 -63 l28 -34 57 16 c31 9 56 20 56 24 0 15 45 59
77 75 43 22 114 20 166 -3 23 -11 60 -24 82 -30 36 -10 42 -8 65 14 14 14 31
25 37 25 6 0 16 7 23 15 15 18 66 34 100 32 22 -2 25 -8 37 -87z m-4272 16
c19 -8 53 -29 75 -47 l40 -32 56 38 c81 56 135 59 237 11 43 -20 80 -36 83
-36 2 0 20 -6 38 -14 l34 -14 -23 -87 c-13 -48 -26 -89 -29 -93 -9 -9 -99 17
-156 44 -61 29 -61 29 -94 3 -15 -12 -55 -30 -88 -40 -73 -23 -112 -16 -193
36 l-53 35 -97 -46 c-110 -52 -178 -60 -250 -30 -29 13 -53 15 -89 10 -39 -5
-47 -3 -43 7 3 8 20 58 38 112 22 69 36 97 48 97 9 0 46 -9 82 -21 l66 -22 84
43 c127 64 169 73 234 46z m275 -386 c19 -10 64 -41 99 -69 35 -28 70 -51 77
-51 21 0 18 -15 -26 -107 -36 -77 -41 -84 -62 -77 -40 12 -72 31 -98 59 -67
72 -116 78 -198 25 -85 -56 -225 -63 -375 -19 l-77 23 -32 -33 c-72 -74 -168
-79 -249 -12 l-31 26 33 80 c18 44 36 84 41 89 5 6 21 4 41 -6 32 -15 34 -15
45 3 7 11 33 29 57 41 41 20 51 21 112 11 75 -12 85 -14 164 -37 69 -21 130
-13 187 25 24 15 69 33 100 39 32 6 62 12 67 14 22 6 92 -7 125 -24z m3958 -7
l92 -16 0 -36 c0 -20 6 -69 14 -108 7 -40 11 -73 7 -73 -3 0 -46 10 -94 22
l-89 23 -30 -38 c-37 -46 -89 -74 -154 -82 -40 -6 -67 -1 -143 24 -51 17 -100
31 -108 31 -8 0 -35 -20 -59 -44 -51 -52 -100 -66 -178 -54 -44 6 -52 5 -78
-17 -16 -14 -40 -25 -54 -25 l-24 0 0 120 0 120 26 6 c14 4 57 4 95 2 68 -5
69 -5 94 27 13 18 41 43 61 55 31 20 45 22 104 17 37 -3 101 -17 142 -31 77
-27 118 -33 118 -17 0 20 56 75 92 91 49 22 57 22 166 3z m353 -352 c16 -2 5
-107 -15 -145 -19 -37 -31 -45 -116 -80 -96 -39 -160 -54 -350 -82 -186 -26
-909 -45 -935 -24 -15 13 -20 75 -9 117 7 27 67 35 102 14 19 -11 35 -12 90
-2 110 18 210 29 332 36 63 4 158 13 210 21 52 8 111 17 130 19 19 3 91 17
160 30 69 13 151 27 184 31 50 6 61 11 75 35 13 22 24 29 56 31 34 3 61 2 86
-1z m-4465 -72 c39 -10 83 -16 98 -13 29 5 84 -19 92 -41 3 -7 -11 -47 -32
-89 l-37 -76 -44 0 c-25 0 -81 9 -126 21 -103 26 -127 22 -260 -41 -122 -59
-227 -84 -307 -76 -67 7 -214 51 -257 77 -26 17 -38 18 -75 9 -60 -14 -108
-13 -108 3 0 6 26 57 58 112 54 95 59 100 93 103 24 2 53 -7 95 -29 88 -46
162 -69 229 -68 66 0 83 5 232 74 147 67 204 73 349 34z m4541 -270 c8 -8 21
-8 46 0 44 15 56 8 117 -66 76 -92 90 -115 116 -197 41 -130 16 -242 -83 -371
-5 -5 -16 -23 -26 -38 -10 -16 -32 -33 -48 -39 -16 -5 -29 -13 -29 -17 0 -4
-9 -7 -20 -8 -11 -1 -47 -12 -80 -24 -47 -17 -73 -21 -118 -16 -120 13 -180
59 -200 153 -6 32 -21 78 -33 101 -18 37 -20 57 -17 145 3 98 5 105 37 153 19
28 77 91 130 142 95 91 97 92 147 93 27 0 55 -5 61 -11z m-5717 -19 c0 -6 11
-22 25 -36 14 -14 32 -36 41 -49 32 -50 231 -130 484 -197 115 -30 137 -33
275 -33 l150 1 106 42 c71 28 122 56 152 82 25 22 49 40 54 40 14 0 43 -56 43
-84 0 -37 -34 -100 -63 -119 -36 -23 -169 -54 -267 -61 -47 -4 -184 -7 -305
-8 l-220 -2 -157 56 c-122 43 -175 67 -235 109 -130 89 -143 109 -130 189 9
55 21 80 38 80 5 0 9 -5 9 -10z m5315 -55 c-14 -21 -25 -46 -25 -56 0 -10 -4
-20 -9 -23 -5 -4 -12 -24 -16 -47 -8 -45 -68 -172 -78 -163 -10 10 -350 -18
-430 -36 l-77 -18 -28 37 c-16 20 -43 61 -60 92 -18 32 -51 74 -75 95 -32 30
-42 46 -42 70 l0 31 70 1 c243 0 416 5 464 13 31 5 97 12 146 15 50 4 110 12
135 19 25 6 46 10 48 9 2 -1 -8 -19 -23 -39z m-991 -54 c3 -5 -1 -11 -9 -15
-9 -3 -15 -18 -15 -34 0 -33 32 -61 110 -99 62 -30 111 -84 161 -177 23 -43
50 -81 60 -83 33 -9 41 -58 19 -124 -11 -32 -20 -79 -20 -104 0 -38 -5 -50
-32 -75 -49 -44 -140 -74 -223 -75 -63 0 -76 3 -124 34 -58 38 -137 129 -173
200 -13 25 -26 48 -29 51 -3 3 -16 34 -28 70 -18 52 -22 77 -17 129 14 146 89
233 251 294 48 18 62 20 69 8z m-4370 -221 c16 -6 26 -17 26 -30 0 -11 4 -20
9 -20 12 0 134 -186 138 -210 2 -12 10 -35 19 -51 11 -22 14 -45 10 -77 -4
-26 -9 -67 -12 -92 -15 -122 -55 -179 -162 -228 -70 -32 -111 -34 -181 -10
-53 18 -141 68 -172 98 -50 49 -80 154 -75 265 5 118 70 269 136 317 14 10 50
27 80 38 57 21 129 21 184 0z m242 -105 c29 -14 68 -27 86 -29 18 -3 73 -18
123 -35 73 -25 107 -31 180 -32 49 0 116 -4 147 -8 54 -7 213 7 323 28 28 6
56 10 64 10 7 1 -17 -28 -55 -63 -112 -103 -234 -292 -234 -362 0 -9 -9 -29
-21 -45 l-20 -29 -44 26 c-33 19 -52 24 -74 19 -18 -4 -32 -2 -36 6 -4 6 -37
25 -74 41 -53 25 -78 30 -136 30 -38 -1 -86 -6 -105 -11 -72 -22 -69 -27 -67
137 l1 147 -61 98 c-34 53 -59 97 -56 97 3 0 30 -11 59 -25z m4929 -39 c21
-20 49 -21 69 -1 13 14 17 13 34 -5 10 -11 25 -46 31 -78 7 -31 22 -73 33 -92
28 -48 27 -220 -1 -288 -14 -33 -71 -69 -116 -73 -16 -2 -35 -7 -41 -11 -6 -4
-48 -10 -95 -14 -75 -6 -90 -4 -139 18 -59 27 -108 74 -141 140 -20 39 -21 59
-4 118 4 14 10 57 12 96 5 67 8 74 42 107 42 40 128 87 180 98 52 11 117 4
136 -15z m-3890 -105 c-5 -28 24 -49 91 -67 101 -26 125 -42 160 -112 17 -34
34 -77 37 -96 12 -75 -52 -241 -122 -315 -74 -78 -161 -97 -294 -63 -118 30
-164 73 -187 175 -9 43 -8 48 42 133 28 49 56 98 62 109 41 76 116 176 160
212 28 23 52 42 53 42 1 1 0 -8 -2 -18z m-824 -431 c30 -5 97 -22 149 -36 74
-20 103 -34 130 -60 35 -33 73 -44 85 -24 19 30 50 -17 74 -112 38 -148 -7
-211 -207 -288 -79 -30 -87 -31 -130 -20 -112 30 -158 49 -266 114 -102 60
-133 122 -109 211 21 74 66 166 98 198 31 30 78 35 176 17z"/>
<path d="M22921 26170 c-92 -22 -202 -95 -274 -185 -24 -29 -66 -95 -92 -147
-68 -130 -111 -186 -156 -200 -21 -6 -48 -8 -61 -4 -25 7 -70 65 -108 140 -29
56 -84 97 -168 123 -64 20 -149 10 -234 -30 -60 -27 -288 -243 -330 -312 -48
-77 -68 -157 -69 -269 -2 -139 13 -166 137 -255 51 -36 100 -71 110 -77 17
-10 16 -13 -12 -58 -16 -27 -35 -60 -43 -75 -8 -14 -17 -28 -21 -31 -3 -3 -16
-26 -28 -52 -47 -102 -61 -346 -25 -429 30 -67 88 -123 156 -148 75 -27 95
-27 216 8 92 27 175 71 216 115 33 36 41 37 97 11 32 -15 71 -24 94 -24 21 1
58 -3 82 -10 23 -6 61 -16 85 -22 41 -11 168 -14 216 -4 76 15 208 111 266
195 25 36 28 49 27 109 l-1 68 65 12 c148 27 335 148 399 257 24 41 27 54 22
109 -3 49 -11 72 -32 100 -42 55 -85 72 -200 79 -55 4 -138 11 -185 16 -47 5
-109 10 -137 11 -29 2 -57 5 -62 9 -6 3 21 20 60 38 95 45 177 128 256 262
128 214 141 323 60 490 -25 53 -55 108 -67 122 -41 53 -164 80 -259 58z m172
-103 c41 -28 116 -191 118 -254 2 -67 -33 -162 -102 -273 -102 -167 -131 -190
-323 -270 -58 -24 -78 -38 -82 -55 -16 -64 36 -91 201 -106 61 -5 153 -14 205
-19 52 -6 117 -10 144 -10 58 0 132 -32 141 -61 22 -69 -10 -131 -104 -204
-101 -77 -253 -131 -334 -118 -28 4 -42 1 -57 -12 -24 -22 -25 -38 -4 -70 9
-14 17 -46 17 -73 2 -47 -1 -51 -57 -111 -114 -118 -214 -142 -395 -97 -57 14
-118 26 -135 26 -17 0 -51 10 -76 22 -25 11 -51 22 -59 24 -24 5 -75 -21 -115
-60 -21 -20 -43 -36 -48 -36 -5 0 -18 -9 -30 -20 -32 -29 -124 -54 -203 -55
-81 0 -113 17 -160 86 -29 40 -29 45 -28 158 2 135 31 248 84 321 17 23 32 48
33 55 1 6 11 24 23 39 12 15 25 36 28 47 4 10 10 19 15 19 5 0 8 9 7 20 -1 11
-5 20 -9 20 -4 0 -7 5 -5 12 1 7 -3 12 -10 13 -6 0 -15 3 -19 8 -4 4 -17 7
-30 7 -12 0 -42 16 -66 35 -24 19 -57 42 -74 50 -51 23 -74 83 -68 180 4 77
37 195 55 195 4 0 11 10 14 21 11 33 233 246 281 269 63 31 132 36 190 15 52
-20 84 -41 85 -59 1 -19 103 -159 131 -179 65 -48 198 -23 246 46 12 17 37 52
56 77 19 25 35 49 35 53 2 18 71 146 93 173 63 75 162 150 208 159 13 2 25 7
29 10 14 15 127 1 154 -18z"/>
<path d="M22890 25917 l-75 -32 -18 -60 c-55 -187 -71 -217 -183 -334 -115
-122 -202 -163 -284 -136 -33 10 -146 90 -176 123 -33 37 -64 103 -64 134 0
50 -79 88 -153 74 -63 -12 -189 -119 -243 -207 -37 -61 -43 -110 -23 -182 20
-72 96 -127 176 -127 21 0 55 -9 76 -20 20 -11 44 -20 52 -20 31 0 85 -35 99
-64 29 -64 8 -102 -117 -201 -100 -81 -128 -117 -155 -197 -25 -77 -36 -201
-21 -229 11 -22 31 -21 109 3 41 13 142 106 172 159 35 63 110 76 154 27 94
-103 208 -178 274 -178 33 0 144 36 203 67 l38 19 -41 32 c-76 62 -86 119 -34
187 42 56 79 72 178 80 51 5 124 19 170 34 82 27 216 95 216 110 0 9 -119 5
-255 -9 -115 -13 -199 -4 -289 30 -128 48 -202 162 -166 255 15 41 58 74 150
117 134 62 199 111 250 186 25 37 62 86 83 110 42 49 77 112 77 139 0 24 -78
143 -93 143 -7 0 -46 -15 -87 -33z m-820 -512 c15 -14 51 -35 81 -46 30 -11
68 -30 84 -42 17 -12 48 -31 70 -42 22 -11 58 -38 80 -60 32 -32 44 -54 58
-113 14 -55 32 -91 74 -149 64 -89 73 -110 73 -164 0 -52 -35 -88 -113 -117
-105 -40 -185 -25 -226 41 -26 43 -27 92 -2 155 19 48 19 50 1 79 -10 17 -24
34 -30 38 -7 4 -10 27 -9 57 3 47 1 51 -27 63 -16 7 -44 25 -63 39 -19 14 -42
26 -50 26 -27 0 -116 57 -149 95 -46 52 -45 102 5 145 31 28 42 31 76 27 23
-3 50 -16 67 -32z"/>
<path d="M24861 25618 c-15 -41 -1 -57 88 -99 71 -34 437 -269 531 -341 14
-11 79 -59 145 -107 132 -97 185 -142 185 -158 0 -14 32 -38 51 -38 9 0 23 8
33 17 35 35 -2 89 -112 164 -31 21 -59 41 -62 44 -22 25 -561 400 -575 400 -2
0 -27 16 -56 36 -66 44 -183 104 -204 104 -9 0 -19 -10 -24 -22z"/>
<path d="M24469 24804 c-32 -39 50 -102 309 -236 74 -39 145 -79 160 -91 14
-12 59 -52 101 -89 42 -37 83 -68 92 -68 20 0 39 20 39 41 0 13 -70 88 -164
174 -19 18 -76 51 -181 104 -181 92 -285 155 -285 172 0 16 -57 10 -71 -7z"/>
<path d="M26331 23576 c-20 -24 -2 -60 51 -96 184 -125 596 -516 817 -775 18
-22 51 -60 72 -85 22 -25 80 -94 130 -155 51 -60 95 -112 98 -115 3 -3 31 -34
61 -69 30 -35 68 -79 85 -97 283 -306 279 -303 310 -301 58 4 39 36 -121 204
-132 137 -324 352 -415 463 -15 19 -57 69 -91 110 -35 41 -69 81 -75 90 -33
40 -276 303 -339 365 -91 90 -260 247 -299 276 -16 13 -34 29 -40 36 -17 21
-209 163 -221 163 -6 0 -17 -6 -23 -14z"/>
<path d="M23800 22969 c0 -5 -4 -8 -9 -5 -11 7 -21 -28 -11 -43 4 -7 27 -18
51 -25 76 -24 463 -180 694 -280 17 -8 59 -26 95 -42 36 -16 92 -44 125 -62
33 -19 89 -50 125 -70 36 -20 69 -39 75 -44 5 -4 48 -33 95 -65 92 -61 162
-115 344 -266 39 -32 80 -66 91 -75 11 -10 38 -30 60 -46 35 -26 201 -162 215
-176 3 -3 30 -25 60 -50 30 -25 123 -103 206 -175 82 -71 176 -150 208 -175
32 -25 84 -66 115 -91 31 -25 88 -67 128 -93 79 -53 108 -55 120 -8 5 22 0 32
-38 64 -24 21 -48 38 -52 38 -9 0 -29 14 -125 90 -31 25 -86 68 -122 95 -36
27 -85 68 -110 91 -25 23 -63 59 -85 79 -51 46 -358 296 -436 355 -33 25 -126
98 -206 164 -156 125 -375 284 -458 331 -27 16 -81 47 -120 70 -84 49 -224
116 -370 174 -11 5 -54 22 -95 39 -41 16 -120 49 -175 72 -127 54 -362 140
-381 140 -8 0 -14 -5 -14 -11z"/>
<path d="M23595 22589 c-4 -5 -4 -20 -1 -33 7 -27 39 -42 181 -86 55 -17 158
-54 228 -82 114 -46 129 -50 143 -36 10 10 13 24 9 41 -6 21 -20 31 -78 54
-40 15 -75 31 -78 36 -3 5 -10 9 -15 8 -5 0 -18 2 -30 5 -11 3 -27 6 -35 8 -8
1 -25 8 -39 16 -14 8 -29 15 -35 16 -29 5 -162 46 -177 54 -23 13 -65 13 -73
-1z"/>
<path d="M13676 15525 c-3 -8 -1 -15 4 -15 6 0 10 7 10 15 0 8 -2 15 -4 15 -2
0 -6 -7 -10 -15z"/>
<path d="M16245 21717 c-116 -39 -242 -143 -319 -262 -57 -89 -61 -107 -60
-265 2 -300 11 -520 23 -534 8 -9 41 -17 89 -21 42 -3 108 -12 146 -20 118
-25 181 -20 308 25 62 23 118 42 123 43 6 1 12 4 15 7 3 3 37 21 75 40 101 50
158 111 184 195 23 73 27 158 10 202 -24 64 -91 111 -192 134 -55 13 -58 15
-52 39 4 14 11 51 16 83 19 119 -44 258 -143 312 -61 33 -160 43 -223 22z
m191 -99 c68 -46 98 -104 98 -188 0 -79 -15 -126 -54 -170 -17 -19 -30 -38
-30 -44 0 -22 56 -37 113 -30 42 5 68 2 106 -12 91 -32 114 -80 91 -189 -17
-81 -75 -143 -187 -196 -185 -88 -304 -114 -403 -85 -30 8 -89 18 -130 22 -41
3 -76 7 -77 8 -1 1 -4 57 -7 125 -4 68 -8 127 -11 131 -3 4 -5 75 -6 157 -1
195 15 238 131 367 73 80 182 135 271 136 36 0 58 -7 95 -32z"/>
<path d="M15005 21311 c-57 -14 -106 -44 -145 -88 -44 -51 -57 -101 -46 -186
4 -28 7 -118 7 -199 0 -84 4 -158 10 -171 6 -13 26 -29 45 -36 33 -12 36 -11
55 13 25 32 94 65 222 105 54 17 117 41 139 52 56 29 188 164 222 227 67 127
36 248 -70 272 -48 11 -147 -20 -218 -67 -27 -19 -50 -32 -51 -31 -1 2 -10 17
-19 35 -29 58 -92 89 -151 74z m65 -96 c5 -3 24 -35 42 -71 41 -82 65 -105 96
-93 20 7 23 14 17 37 -5 26 -1 31 42 58 27 17 72 39 100 49 49 17 54 18 71 2
13 -12 17 -27 14 -54 -12 -125 -174 -281 -323 -312 -24 -5 -80 -23 -124 -40
-44 -18 -84 -33 -89 -34 -5 -1 -11 80 -13 191 l-4 192 40 39 c46 45 94 59 131
36z"/>
<path d="M21876 11902 c-2 -4 -1 -23 3 -43 6 -38 49 -82 126 -129 40 -25 39
-21 21 -80 -44 -149 4 -261 105 -247 51 7 62 16 99 90 26 52 30 71 30 139 0
44 -5 89 -11 101 -16 31 -50 57 -76 57 -28 0 -178 55 -212 78 -37 25 -80 42
-85 34z"/>
<path d="M23145 11780 c-60 -37 -95 -52 -147 -60 -37 -7 -76 -19 -87 -28 -10
-10 -30 -54 -45 -99 -40 -125 -33 -223 16 -239 13 -4 25 -7 28 -6 3 0 10 -4
16 -9 13 -10 72 7 92 27 24 25 44 99 46 171 0 40 3 73 6 73 3 0 15 7 25 15 11
8 39 28 62 44 48 34 106 114 101 139 -6 29 -30 23 -113 -28z"/>
<path d="M22215 10265 c-3 -8 -7 -21 -9 -29 -3 -8 5 -25 17 -39 12 -13 28 -33
36 -45 15 -21 55 -34 78 -25 23 9 14 45 -24 100 -30 43 -42 53 -65 53 -17 0
-31 -6 -33 -15z"/>
<path d="M23394 10272 c-6 -4 -28 -28 -48 -55 -43 -57 -47 -93 -10 -109 35
-16 51 -4 88 64 26 49 28 60 18 82 -12 26 -27 32 -48 18z"/>
<path d="M25735 7620 c-13 -21 -15 -61 -4 -81 9 -18 17 -20 47 -14 44 8 39 4
47 37 5 19 1 32 -14 47 -22 22 -65 28 -76 11z"/>
<path d="M24381 7547 c-13 -6 -28 -22 -32 -34 -7 -18 -3 -26 16 -39 33 -21 66
-14 84 18 15 25 14 28 -8 47 -28 24 -29 25 -60 8z"/>
<path d="M19921 7304 c-25 -10 -31 -19 -31 -42 0 -16 9 -37 21 -47 19 -19 21
-19 55 0 32 17 35 22 30 54 -3 20 -5 37 -6 37 -2 10 -44 8 -69 -2z"/>
<path d="M25075 7242 c-27 -20 -35 -40 -25 -66 10 -26 43 -36 55 -16 3 6 15
10 26 10 28 0 24 35 -7 59 -29 23 -34 24 -49 13z"/>
<path d="M21248 7049 c-27 -15 -22 -56 8 -76 24 -15 28 -15 52 0 15 8 28 22
29 29 7 35 -55 68 -89 47z"/>
<path d="M20553 6718 c-18 -24 -9 -52 20 -62 34 -12 61 1 65 33 3 17 -2 21
-22 21 -14 0 -28 5 -31 10 -8 14 -21 13 -32 -2z"/>
<path d="M11580 14840 c0 -5 5 -10 10 -10 6 0 10 5 10 10 0 6 -4 10 -10 10 -5
0 -10 -4 -10 -10z"/>
<path d="M31338 9432 c-21 -4 -32 -32 -12 -32 8 0 17 -7 20 -15 4 -8 14 -15
25 -15 21 0 41 31 31 46 -9 13 -41 21 -64 16z"/>
</g>
</svg>
